<?xml version="1.0" encoding="UTF-8" standalone="no"?>
<!-- Created with Inkscape (http://www.inkscape.org/) -->

<svg
   xmlns:dc="http://purl.org/dc/elements/1.1/"
   xmlns:cc="http://creativecommons.org/ns#"
   xmlns:rdf="http://www.w3.org/1999/02/22-rdf-syntax-ns#"
   xmlns:svg="http://www.w3.org/2000/svg"
   xmlns="http://www.w3.org/2000/svg"
   xmlns:sodipodi="http://sodipodi.sourceforge.net/DTD/sodipodi-0.dtd"
   xmlns:inkscape="http://www.inkscape.org/namespaces/inkscape"
   width="71.0383mm"
   height="72.283409mm"
   viewBox="0 0 71.0383 72.283409"
   version="1.1"
   id="svg8"
   inkscape:version="0.92.3 (2405546, 2018-03-11)"
   sodipodi:docname="atom.svg">
  <defs
     id="defs2" />
  <sodipodi:namedview
     id="base"
     pagecolor="#ffffff"
     bordercolor="#666666"
     borderopacity="1.0"
     inkscape:pageopacity="0.0"
     inkscape:pageshadow="2"
     inkscape:zoom="3.959798"
     inkscape:cx="130.60152"
     inkscape:cy="131.86671"
     inkscape:document-units="mm"
     inkscape:current-layer="g627"
     showgrid="false"
     fit-margin-top="0"
     fit-margin-left="0"
     fit-margin-right="0"
     fit-margin-bottom="0"
     inkscape:window-width="1366"
     inkscape:window-height="661"
     inkscape:window-x="0"
     inkscape:window-y="27"
     inkscape:window-maximized="1" />
  <metadata
     id="metadata5">
    <rdf:RDF>
      <cc:Work
         rdf:about="">
        <dc:format>image/svg+xml</dc:format>
        <dc:type
           rdf:resource="http://purl.org/dc/dcmitype/StillImage" />
        <dc:title></dc:title>
      </cc:Work>
    </rdf:RDF>
  </metadata>
  <g
     inkscape:label="Capa 1"
     inkscape:groupmode="layer"
     id="layer1"
     transform="translate(-74.943962,-114.02092)">
    <g
       transform="matrix(0.35277777,0,0,-0.35277777,-35.277775,291.22079)"
       inkscape:label="ink_ext_XXXXXX"
       id="g18">
      <g
         transform="scale(0.1)"
         id="g20">
        <g
           id="g627">
          <path
             d="m 4419.72,4032.52 c -0.21,0 -0.44,2.33 -0.69,6.85 -0.18,4.53 -0.45,11.25 -0.81,20.06 -0.42,17.62 -1.5,43.55 -2.96,76.83 -3.53,66.48 -10,162.51 -28.4,278.86 -9.32,58.13 -21.85,121.28 -39.44,187.71 -4.18,16.67 -9.31,33.35 -14.19,50.38 -2.67,8.44 -5.37,16.95 -8.08,25.51 -2.65,8.59 -5.54,17.16 -8.63,25.72 -11.82,34.45 -25.62,69.27 -42.08,103.73 -16.44,34.42 -35.48,68.65 -58.83,100.54 -23.15,31.82 -51.64,61.29 -86.45,80.78 -17.4,9.65 -36.74,15.5 -56.44,17.03 -19.7,1.4 -39.92,-1.58 -58.59,-9.54 -18.7,-7.86 -35.97,-19.43 -51.93,-32.88 -7.56,-7.27 -15.55,-14.08 -22.44,-22.17 -3.51,-3.97 -7.29,-7.67 -10.58,-11.87 l -9.97,-12.51 c -6.68,-8.33 -12.5,-17.42 -18.78,-26.14 -5.63,-9.21 -11.68,-18.17 -17.01,-27.63 -10.8,-18.83 -20.94,-38.18 -30.07,-58.13 -18.46,-39.81 -34.03,-81.35 -47.6,-123.7 -13.6,-42.35 -25.07,-85.61 -34.81,-129.3 -9.73,-43.7 -18.19,-87.75 -24.92,-132.03 -13.53,-88.53 -21.9,-177.58 -25.58,-265.57 -3.96,-87.98 -3.14,-174.92 1.18,-259.4 4.27,-84.49 13.03,-166.5 24.9,-244.74 12.44,-78.15 27.96,-152.63 47.9,-221.5 9.72,-34.51 20.68,-67.55 32.49,-98.98 11.61,-31.52 24.76,-61.16 38.57,-88.93 13.72,-27.84 28.99,-53.37 45.18,-76.33 16.25,-22.87 33.42,-43.46 52.18,-59.61 18.59,-16.25 39.14,-29.37 61.02,-36.65 21.82,-7.38 44.83,-8.49 66.39,-3.53 21.63,4.88 41.61,15.5 59.38,28.66 17.99,13 33.28,29.34 47.38,45.99 27.83,33.89 49.63,71.02 67.88,107.98 18.22,37.05 32.91,74.14 45.57,110.19 6.54,17.95 11.93,35.9 17.53,53.34 5.03,17.62 10.33,34.74 14.6,51.75 9.21,33.82 16.4,66.5 23.05,97.63 12.96,62.35 21.64,118.96 28.08,169.33 12.8,100.79 17.11,176.58 20.08,226.9 1.59,25.17 2.34,44.02 3.28,56.57 0.91,12.55 1.8,18.8 2.64,18.8 0.85,0 1.62,-6.25 2.3,-18.83 0.66,-12.59 1.45,-31.5 1.33,-56.81 -0.04,-50.58 -1.71,-126.87 -12.39,-228.66 -5.38,-50.87 -13.13,-108.11 -25.36,-171.29 -6.29,-31.55 -13.16,-64.7 -22.12,-99.08 -4.14,-17.27 -9.35,-34.71 -14.29,-52.65 -5.53,-17.77 -10.85,-36.05 -17.36,-54.41 -12.61,-36.83 -27.33,-74.81 -45.88,-113.07 -18.61,-38.18 -40.95,-76.86 -70.42,-113.03 -14.99,-17.82 -31.36,-35.46 -51.38,-50.09 -19.75,-14.7 -42.69,-27.14 -68.5,-33.03 -25.69,-6.01 -53.79,-4.65 -79.52,4.08 -25.85,8.6 -49.08,23.64 -69.49,41.47 -20.62,17.81 -38.87,39.78 -55.99,63.89 -17.04,24.2 -32.87,50.81 -46.99,79.54 -14.22,28.68 -27.66,59.13 -39.46,91.35 -12.02,32.15 -23.11,65.83 -32.9,100.91 -20.1,70.05 -35.61,145.49 -47.94,224.53 -11.77,79.13 -20.33,161.93 -24.33,247.16 -4.04,85.23 -4.52,172.84 -0.15,261.53 4.09,88.69 12.94,178.45 27.04,267.75 7.01,44.65 15.77,89.12 25.85,133.24 10.08,44.13 21.92,87.85 35.96,130.74 14,42.89 30.07,85.03 49.17,125.59 9.45,20.32 19.96,40.11 31.19,59.41 5.54,9.69 11.85,18.94 17.73,28.39 6.57,9.03 12.65,18.37 19.68,27.04 l 10.5,13 c 3.46,4.35 7.49,8.27 11.2,12.41 7.29,8.42 15.85,15.69 23.94,23.32 17.16,14.29 35.99,26.79 56.81,35.36 20.77,8.68 43.78,12.02 65.99,10.25 22.24,-1.85 43.82,-8.69 62.7,-19.34 4.84,-2.45 9.17,-5.68 13.76,-8.49 2.25,-1.46 4.55,-2.87 6.75,-4.38 l 6.28,-4.95 c 4.13,-3.35 8.48,-6.46 12.38,-10.01 l 11.51,-10.8 c 3.95,-3.49 7.32,-7.47 10.85,-11.29 3.48,-3.87 7.09,-7.62 10.42,-11.56 l 9.63,-12.09 c 3.23,-3.99 6.41,-8.01 9.24,-12.24 23.86,-33.13 42.97,-68.22 59.39,-103.37 16.44,-35.17 30.08,-70.54 41.71,-105.44 3.04,-8.69 5.88,-17.37 8.48,-26.06 2.64,-8.67 5.4,-17.24 7.9,-25.82 4.75,-17.22 9.76,-34.09 13.8,-50.91 17.04,-67.09 28.92,-130.71 37.56,-189.21 17.02,-117.08 21.96,-213.45 23.9,-280.13 0.67,-33.36 0.94,-59.34 0.53,-76.99 -0.19,-8.81 -0.34,-15.54 -0.44,-20.08 -0.17,-4.52 -0.36,-6.85 -0.57,-6.85"
             style="fill:#9ed8e1;fill-opacity:1;fill-rule:nonzero;stroke:none"
             id="path24"
             inkscape:connector-curvature="0" />
          <path
             d="m 4323.6,4295.64 c -0.15,-0.15 -1.92,1.33 -5.22,4.34 -3.26,3.05 -8.09,7.6 -14.41,13.55 -12.46,12.11 -31.11,29.6 -55.11,51.99 -48.38,44.31 -119.26,107.33 -212.7,176.21 -46.76,34.32 -99.29,69.9 -157.66,104.21 -14.47,8.79 -29.68,16.83 -44.88,25.41 -15.5,8.01 -31.02,16.56 -47.26,24.19 -32.21,15.8 -66.01,30.63 -101.49,43.14 -35.44,12.53 -72.55,23.08 -111.04,28.94 -9.6,1.57 -19.33,2.23 -29.06,3.37 -4.87,0.18 -9.76,0.37 -14.66,0.56 -4.9,0.26 -9.8,0.4 -14.69,0.07 -4.89,-0.18 -9.8,-0.37 -14.71,-0.55 -4.87,-0.49 -9.73,-1.19 -14.6,-1.77 -2.43,-0.33 -4.9,-0.52 -7.31,-0.97 l -7.16,-1.62 c -4.73,-1.23 -9.69,-1.79 -14.26,-3.56 -37.64,-10.82 -70.42,-37.48 -86.21,-74.43 -7.94,-18.33 -12.53,-38.29 -14.71,-58.74 l -0.84,-15.48 c -0.1,-2.59 -0.33,-5.16 -0.33,-7.76 l 0.21,-7.81 c 0.17,-5.22 0.17,-10.43 0.48,-15.66 l 1.47,-15.69 c 4.24,-41.93 15.43,-83.62 29.36,-124.46 14.08,-40.87 31.44,-80.98 50.82,-120.27 19.34,-39.33 40.95,-77.76 64,-115.36 23.09,-37.57 47.33,-74.54 73.04,-110.4 51.26,-71.82 106.65,-140.38 164.67,-204.89 57.82,-64.71 118.36,-125.33 179.72,-181.73 122.9,-112.54 250.32,-207.57 373.64,-276.61 15.29,-8.84 30.81,-16.68 45.93,-24.72 15.38,-7.48 30.34,-15.27 45.5,-21.87 30.02,-13.91 59.77,-25.54 88.75,-35.18 28.95,-9.79 57.34,-17.07 84.64,-21.61 27.26,-4.52 53.53,-6.72 77.85,-4.93 24.26,1.76 47.66,7.06 68,17.23 20.37,10.07 37.3,25.2 49.2,43.51 12,18.29 19.05,39.42 22.83,60.87 4.05,21.49 3.67,43.54 2.56,64.97 -3.25,43.07 -13.04,84.33 -25.29,123.03 -12.33,38.75 -27.25,75.1 -42.92,109.32 -7.68,17.19 -16.11,33.61 -24.09,49.79 -8.53,15.91 -16.47,31.69 -25.13,46.64 -4.24,7.52 -8.43,14.95 -12.58,22.29 -4.31,7.25 -8.57,14.42 -12.78,21.5 -8.26,14.25 -17.09,27.71 -25.32,41.06 -33.63,52.96 -66.41,98.9 -96.5,138.88 -60.25,79.94 -109.44,136.29 -142.01,173.8 -16.22,18.83 -28.68,32.62 -36.67,42.11 -8,9.48 -11.68,14.5 -11.07,15.09 0.6,0.59 5.46,-3.27 14.63,-11.65 9.15,-8.4 22.76,-21.16 40.12,-39.06 34.85,-35.65 86.28,-90.53 148.76,-169.71 31.2,-39.6 65.09,-85.36 99.84,-138.42 8.51,-13.38 17.61,-26.87 26.16,-41.2 4.34,-7.11 8.75,-14.32 13.2,-21.61 4.29,-7.4 8.62,-14.88 13.01,-22.46 8.93,-15.05 17.17,-30.99 25.97,-47.07 8.29,-16.38 17,-33 24.97,-50.47 16.27,-34.75 31.79,-71.79 44.73,-111.67 12.85,-39.85 23.32,-82.63 26.96,-128.5 1.28,-22.94 1.78,-46.66 -2.64,-70.72 -4.13,-23.94 -12.07,-48.37 -26.31,-70.18 -14.08,-21.82 -34.67,-40.21 -58.66,-52.06 -23.98,-12 -50.62,-17.86 -77.29,-19.8 -26.78,-1.95 -54.84,0.47 -83.61,5.25 -28.81,4.82 -58.35,12.46 -88.24,22.6 -29.95,10 -60.48,22.02 -91.15,36.29 -15.51,6.79 -30.74,14.75 -46.42,22.43 -15.38,8.21 -31.18,16.25 -46.71,25.26 -125.21,70.5 -253.57,166.93 -377.17,280.93 -61.7,57.15 -122.47,118.49 -180.51,184 -58.23,65.32 -113.78,134.73 -165.18,207.51 -25.78,36.34 -50.09,73.82 -73.24,111.95 -23.11,38.16 -44.78,77.19 -64.2,117.22 -19.44,40 -36.87,80.9 -51.01,122.77 -13.98,41.88 -25.26,84.74 -29.42,128.55 l -1.43,16.41 c -0.29,5.48 -0.27,11 -0.41,16.48 l -0.15,8.23 c 0.01,2.75 0.27,5.5 0.4,8.25 l 1,16.45 c 2.48,21.89 7.56,43.59 16.52,63.86 8.73,20.39 22.84,38.4 39.6,52.52 16.89,14.01 36.6,24.46 57.21,30.1 5.04,1.86 10.34,2.47 15.49,3.75 l 7.75,1.67 c 2.6,0.47 5.22,0.66 7.82,1 5.21,0.59 10.41,1.28 15.6,1.76 5.2,0.16 10.38,0.31 15.55,0.47 5.18,0.3 10.32,0.11 15.44,-0.19 5.12,-0.24 10.23,-0.48 15.33,-0.72 10.1,-1.24 20.23,-2.02 30.14,-3.72 39.73,-6.38 77.53,-17.49 113.47,-30.56 35.98,-13.03 70.06,-28.35 102.47,-44.63 16.34,-7.87 31.93,-16.64 47.49,-24.88 15.25,-8.8 30.5,-17.07 44.99,-26.07 58.46,-35.17 110.85,-71.54 157.39,-106.61 92.98,-70.36 163.01,-134.72 210.39,-180.28 23.5,-23.01 41.61,-41.11 53.49,-53.81 5.94,-6.34 10.48,-11.18 13.54,-14.44 3,-3.3 4.47,-5.07 4.32,-5.22"
             style="fill:#9ed8e1;fill-opacity:1;fill-rule:nonzero;stroke:none"
             id="path26"
             inkscape:connector-curvature="0" />
          <path
             d="m 4306.78,3804.14 c 0.15,-0.15 -1.34,-1.88 -4.4,-5.12 -3.11,-3.19 -7.72,-7.93 -13.76,-14.13 -12.08,-12.44 -30.48,-30.11 -54.39,-52.53 -48.17,-44.39 -119.43,-106.94 -214.17,-174.27 -47.41,-33.55 -100.79,-68.1 -160.29,-101.03 -29.83,-16.31 -61.05,-32.48 -94.14,-47.07 -33.03,-14.7 -67.61,-28.55 -104.07,-39.84 -36.45,-11.18 -74.69,-20.3 -114.64,-24.22 -20,-1.5 -40.35,-2.65 -60.91,-0.71 -10.3,0.44 -20.55,2.36 -30.85,4.07 -5.16,0.78 -10.19,2.5 -15.3,3.73 l -7.65,2.02 c -2.54,0.73 -4.98,1.82 -7.48,2.71 -20.14,6.74 -39.2,17.91 -55.5,32.34 -16.33,14.36 -30.08,32.26 -39.06,52.36 -2.71,4.83 -4.35,10.08 -6.29,15.22 -1.9,5.16 -3.95,10.3 -5.07,15.67 -1.31,5.33 -2.78,10.64 -3.95,16 l -2.51,16.26 c -2.63,21.74 -3.18,43.79 -1.24,65.6 3.37,43.73 13.28,86.84 26.91,128.72 13.6,41.93 30.67,82.86 49.89,122.83 19.3,39.94 40.91,78.85 63.97,116.88 23.12,37.99 47.58,75.22 73.56,111.24 51.73,72.21 107.96,140.75 166.99,204.97 58.84,64.42 120.59,124.41 183.33,180.01 125.77,110.79 256.56,203.3 384.08,268.68 31.88,16.28 63.41,31.15 94.77,43.65 31.26,12.68 62.11,23.58 92.54,31.8 60.54,16.98 119.59,24.32 172.67,17.66 26.46,-3.28 52.47,-11.18 75.62,-24.13 23.17,-12.92 42.9,-31.47 56.92,-53 14.14,-21.53 22.65,-45.51 27.5,-69.26 4.42,-23.87 5.2,-47.48 4.46,-70.43 -2.62,-45.83 -12.34,-88.7 -24.6,-128.62 -12.36,-39.95 -27.49,-77.05 -43.47,-111.82 -32.18,-69.51 -68.25,-129.46 -102.99,-182.26 -34.88,-52.75 -69.01,-98.09 -100.5,-137.26 -63.05,-78.34 -115.24,-132.19 -150.52,-167.15 -17.6,-17.55 -31.38,-30.04 -40.66,-38.23 -9.29,-8.18 -14.2,-11.95 -14.8,-11.34 -0.59,0.6 3.16,5.54 11.31,14.84 8.26,9.17 20.66,22.93 37.25,41.33 33.03,36.85 82.98,92.2 143.77,171.26 30.36,39.53 63.36,85.05 97.1,137.67 33.59,52.64 68.51,112.18 99.47,180.54 15.38,34.19 29.88,70.52 41.63,109.26 11.65,38.69 20.7,79.94 22.99,122.88 0.59,21.42 -0.23,43.2 -4.25,64.67 -4.43,21.3 -12,42.17 -24.09,60.5 -12.02,18.35 -28.6,33.94 -48.5,45.04 -19.9,11.1 -42.77,18.22 -66.89,21.18 -48.29,6.09 -104.44,-0.5 -162.94,-16.87 -29.37,-7.88 -59.4,-18.43 -89.93,-30.76 -30.62,-12.13 -61.56,-26.64 -92.91,-42.56 -125.41,-63.91 -255.14,-154.98 -380.09,-264.25 -62.35,-54.83 -123.81,-114.07 -182.39,-177.65 -58.78,-63.38 -114.8,-131.03 -166.34,-202.23 -25.9,-35.52 -50.26,-72.2 -73.3,-109.61 -22.98,-37.44 -44.51,-75.71 -63.73,-114.91 -19.13,-39.23 -36.12,-79.31 -49.64,-120.18 -13.58,-40.82 -23.4,-82.63 -26.88,-124.43 -3.62,-41.59 -0.03,-84 16.7,-120.41 8,-18.33 20.22,-34.34 34.79,-47.37 14.55,-13.04 31.61,-23.32 50.14,-29.65 2.3,-0.84 4.52,-1.87 6.86,-2.56 l 7.1,-1.92 c 4.75,-1.16 9.36,-2.83 14.21,-3.59 9.66,-1.65 19.24,-3.56 29.04,-4.04 19.45,-2.01 39.02,-1.05 58.31,0.23 38.62,3.47 76.11,12.06 111.99,22.72 35.9,10.78 70.15,24.14 102.93,38.36 32.84,14.12 63.94,29.84 93.69,45.7 59.36,32.06 112.82,65.8 160.41,98.59 95.12,65.81 167.19,127 216.33,170.1 24.39,21.79 43.32,38.85 55.96,50.67 6.42,5.81 11.32,10.25 14.62,13.23 3.34,2.94 5.13,4.37 5.28,4.22"
             style="fill:#9ed8e1;fill-opacity:1;fill-rule:nonzero;stroke:none"
             id="path28"
             inkscape:connector-curvature="0" />
          <path
             d="m 5062.01,4022.89 c -0.21,0 -0.58,2.27 -1.09,6.67 -0.62,4.38 -0.73,10.97 -3.1,19.26 -3.53,16.65 -12.74,40.8 -32.91,66.2 -19.95,25.42 -49.76,52.27 -88.79,76.48 -38.82,24.51 -86.01,47.5 -140,67.59 -216.04,81.07 -535.98,122.77 -876.51,99.03 -42.56,-3.06 -85.44,-7.11 -128.42,-12.64 -43,-5.3 -86.09,-12 -129.05,-20.18 -85.91,-16.1 -171.49,-38.19 -253.33,-69.02 -40.83,-15.52 -80.69,-33.4 -118.13,-54.84 -18.85,-10.51 -36.6,-22.56 -53.82,-35.08 l -12.39,-9.98 -6.18,-4.99 -5.82,-5.33 -11.55,-10.73 -10.62,-11.47 c -13.61,-15.62 -25.65,-32.5 -33.52,-50.97 -7.72,-18.46 -11.35,-38.18 -10.02,-57.63 1.33,-19.42 7.19,-38.49 16.88,-55.73 9.82,-17.18 22.2,-32.98 36.29,-47.21 28.44,-28.32 62.23,-50.89 96.83,-70.24 34.76,-19.28 70.81,-35.16 106.83,-48.94 36.05,-13.76 72.14,-25.48 107.84,-35.34 17.76,-5.26 35.62,-9.42 53.1,-13.98 17.64,-3.99 34.95,-8.34 52.23,-11.73 137.92,-28.87 262.88,-39.78 364.03,-44.27 202.56,-8.65 379.5,5.01 527.88,29.75 74.21,12.49 141.32,28 201.16,45.37 59.74,17.7 112.18,37.35 156.98,58.31 44.62,21.24 81.52,43.84 110.17,66.69 28.72,22.77 48.86,45.98 61.26,66.69 12.55,20.75 16.88,38.51 19.99,50.2 1.73,11.94 2.92,18.06 3.78,18.06 0.82,0 1.32,-6.13 1.12,-18.76 -1.58,-12.33 -4.63,-31.54 -16.57,-54.2 -11.76,-22.58 -31.87,-47.91 -60.81,-72.54 -28.87,-24.73 -66.22,-49.02 -111.36,-71.75 -45.29,-22.43 -98.32,-43.38 -158.69,-62.18 -60.47,-18.49 -128.26,-34.94 -203.19,-48.18 -149.84,-26.24 -328.37,-40.71 -532.82,-31.98 -102.11,4.54 -228.25,15.71 -367.92,45.27 -17.49,3.48 -35.05,7.93 -52.92,12.02 -17.74,4.67 -35.83,8.94 -53.88,14.33 -36.25,10.13 -72.97,22.15 -109.78,36.34 -36.78,14.2 -73.72,30.59 -109.66,50.69 -35.8,20.21 -71.09,43.8 -101.67,74.46 -15.16,15.44 -28.84,32.87 -39.85,52.37 -10.9,19.57 -17.87,42.02 -19.33,65.06 -1.5,23.07 3,46.49 12.01,67.66 9.14,21.19 22.62,39.8 37.5,56.73 l 11.56,12.35 12.38,11.41 c 2.08,1.88 4.12,3.83 6.24,5.66 l 6.55,5.25 13.13,10.47 c 18.11,13.06 36.71,25.52 56.22,36.3 38.8,21.97 79.67,40.04 121.36,55.65 83.52,30.98 170.2,52.82 257.05,68.6 43.42,8.01 86.93,14.51 130.3,19.59 43.35,5.32 86.57,9.12 129.44,11.92 342.93,21.65 664.16,-22.9 881.12,-107.42 54.21,-20.96 101.59,-44.88 140.54,-70.38 39.13,-25.18 69.02,-53.14 88.77,-79.62 19.98,-26.46 28.66,-51.58 31.43,-68.69 2,-8.52 1.7,-15.25 1.9,-19.7 0.1,-4.46 0.05,-6.73 -0.17,-6.73"
             style="fill:#9ed8e1;fill-opacity:1;fill-rule:nonzero;stroke:none"
             id="path30"
             inkscape:connector-curvature="0" />
          <path
             d="m 4258.56,4046.02 c 0,-108.2 -87.71,-195.9 -195.9,-195.9 -108.19,0 -195.9,87.7 -195.9,195.9 0,108.19 87.71,195.89 195.9,195.89 108.19,0 195.9,-87.7 195.9,-195.89"
             style="fill:#ff8080;fill-opacity:1;fill-rule:nonzero;stroke:none"
             id="path32"
             inkscape:connector-curvature="0" />
          <path
             d="m 4138.63,3051.08 c 0,-42.56 -34.5,-77.07 -77.07,-77.07 -42.57,0 -77.08,34.51 -77.08,77.07 0,42.57 34.51,77.08 77.08,77.08 42.57,0 77.07,-34.51 77.07,-77.08"
             style="fill:#9ed8e1;fill-opacity:1;fill-rule:nonzero;stroke:none"
             id="path34"
             inkscape:connector-curvature="0" />
          <path
             d="m 5138.08,4022.89 c 0,-42.57 -34.51,-77.08 -77.08,-77.08 -42.57,0 -77.07,34.51 -77.07,77.08 0,42.57 34.5,77.07 77.07,77.07 42.57,0 77.08,-34.5 77.08,-77.07"
             style="fill:#ffccaa;fill-opacity:1;fill-rule:nonzero;stroke:none"
             id="path36"
             inkscape:connector-curvature="0" />
          <path
             d="m 4799.3,4736.88 c 0,-41.62 -33.74,-75.36 -75.36,-75.36 -41.62,0 -75.36,33.74 -75.36,75.36 0,41.62 33.74,75.36 75.36,75.36 41.62,0 75.36,-33.74 75.36,-75.36"
             style="fill:#9ed8e1;fill-opacity:1;fill-rule:nonzero;stroke:none"
             id="path38"
             inkscape:connector-curvature="0" />
          <path
             d="m 3462.96,4710.24 c 0,-41.62 -33.73,-75.36 -75.35,-75.36 -41.62,0 -75.36,33.74 -75.36,75.36 0,41.62 33.74,75.36 75.36,75.36 41.62,0 75.35,-33.74 75.35,-75.36"
             style="fill:#9ed8e1;fill-opacity:1;fill-rule:nonzero;stroke:none"
             id="path40"
             inkscape:connector-curvature="0" />
          <path
             d="m 4038.81,4106.13 c 0,-33.41 -27.08,-60.5 -60.5,-60.5 -33.41,0 -60.49,27.09 -60.49,60.5 0,33.42 27.08,60.5 60.49,60.5 33.42,0 60.5,-27.08 60.5,-60.5"
             style="fill:#ffffff;fill-opacity:1;fill-rule:nonzero;stroke:none"
             id="path42"
             inkscape:connector-curvature="0" />
          <path
             d="m 3392.95,4736.88 c 0,-14.12 -11.44,-25.56 -25.56,-25.56 -14.11,0 -25.55,11.44 -25.55,25.56 0,14.11 11.44,25.56 25.55,25.56 14.12,0 25.56,-11.45 25.56,-25.56"
             style="fill:#ffffff;fill-opacity:1;fill-rule:nonzero;stroke:none"
             id="path44"
             inkscape:connector-curvature="0" />
          <path
             d="m 4733.03,4762.44 c 0,-14.12 -11.45,-25.56 -25.56,-25.56 -14.12,0 -25.56,11.44 -25.56,25.56 0,14.11 11.44,25.55 25.56,25.55 14.11,0 25.56,-11.44 25.56,-25.55"
             style="fill:#ffffff;fill-opacity:1;fill-rule:nonzero;stroke:none"
             id="path46"
             inkscape:connector-curvature="0" />
          <path
             d="m 5072.16,4048.45 c 0,-14.12 -11.45,-25.56 -25.56,-25.56 -14.12,0 -25.56,11.44 -25.56,25.56 0,14.11 11.44,25.55 25.56,25.55 14.11,0 25.56,-11.44 25.56,-25.55"
             style="fill:#ffffff;fill-opacity:1;fill-rule:nonzero;stroke:none"
             id="path48"
             inkscape:connector-curvature="0" />
          <path
             d="m 4061.56,3076.64 c 0,-14.11 -11.44,-25.56 -25.56,-25.56 -14.11,0 -25.56,11.45 -25.56,25.56 0,14.12 11.45,25.56 25.56,25.56 14.12,0 25.56,-11.44 25.56,-25.56"
             style="fill:#ffffff;fill-opacity:1;fill-rule:nonzero;stroke:none"
             id="path50"
             inkscape:connector-curvature="0" />
          <path
             d="m 4061.56,3076.64 c -0.74,-0.1 -0.46,5.64 -4.93,12.49 -2.31,3.23 -5.68,6.88 -10.53,8.77 -4.71,2 -10.51,2.56 -15.99,0.97 -5.48,-1.54 -10.43,-5.37 -13.33,-10.35 -2.94,-4.96 -3.84,-10.94 -2.69,-16.2 2.43,-10.77 11.89,-16.69 18.16,-17.37 6.45,-1.06 12.18,0.67 16.31,3.21 4.09,2.72 6.65,6.03 8.39,8.88 1.53,2.93 2.55,5.34 2.99,7.03 0.59,1.68 1.14,2.57 1.62,2.57 0.48,0 0.85,-0.9 1.07,-2.86 0.37,-1.96 0.04,-4.94 -1.21,-8.8 -1.46,-3.74 -4.2,-8.31 -9.25,-12.12 -5.07,-3.62 -12.63,-6.18 -21.09,-4.77 -2.09,0.31 -4.37,1.14 -6.78,2.03 -2.27,1.23 -4.81,2.45 -6.96,4.52 -4.46,3.82 -8.26,9.6 -9.54,16.44 -1.28,6.8 0.13,14.4 4.07,20.48 3.89,6.1 10.24,10.52 16.98,12.07 6.74,1.6 13.61,0.49 18.92,-2.22 5.47,-2.6 8.98,-7.05 11.18,-10.87 1,-2.02 1.91,-3.82 2.2,-5.61 0.42,-1.72 0.83,-3.18 0.73,-4.46 0.02,-2.49 -0.08,-3.83 -0.32,-3.83"
             style="fill:#ffffff;fill-opacity:1;fill-rule:nonzero;stroke:none"
             id="path52"
             inkscape:connector-curvature="0" />
        </g>
      </g>
    </g>
  </g>
</svg>
