<?xml version="1.0" encoding="UTF-8" standalone="no"?>
<!-- Created with Inkscape (http://www.inkscape.org/) -->

<svg
   xmlns:dc="http://purl.org/dc/elements/1.1/"
   xmlns:cc="http://creativecommons.org/ns#"
   xmlns:rdf="http://www.w3.org/1999/02/22-rdf-syntax-ns#"
   xmlns:svg="http://www.w3.org/2000/svg"
   xmlns="http://www.w3.org/2000/svg"
   xmlns:sodipodi="http://sodipodi.sourceforge.net/DTD/sodipodi-0.dtd"
   xmlns:inkscape="http://www.inkscape.org/namespaces/inkscape"
   width="78.676186mm"
   height="61.831356mm"
   viewBox="0 0 78.676186 61.831356"
   version="1.1"
   id="svg8"
   inkscape:version="0.92.3 (2405546, 2018-03-11)"
   sodipodi:docname="brain.svg">
  <defs
     id="defs2">
    <clipPath
       id="clipPath28"
       clipPathUnits="userSpaceOnUse">
      <path
         inkscape:connector-curvature="0"
         id="path26"
         d="M 0,800 H 800 V 0 H 0 Z" />
    </clipPath>
    <clipPath
       id="clipPath160"
       clipPathUnits="userSpaceOnUse">
      <path
         inkscape:connector-curvature="0"
         id="path158"
         d="M 0,800 H 800 V 0 H 0 Z" />
    </clipPath>
    <clipPath
       id="clipPath404"
       clipPathUnits="userSpaceOnUse">
      <path
         inkscape:connector-curvature="0"
         id="path402"
         d="m 377.595,564.55 h -0.082 -9.092 c 0,0 1.218,-38.795 -1.325,-42.896 v 0 c -2.542,-4.102 -8.12,-9.515 -11.401,-11.155 v 0 l 3.035,-10.663 c 0,0 16.549,7.062 18.824,17.792 v 0 c 2.274,-10.73 18.823,-17.792 18.823,-17.792 v 0 l 3.035,10.663 c -3.281,1.64 -8.858,7.053 -11.4,11.155 v 0 c -2.543,4.101 -1.326,42.896 -1.326,42.896 v 0 z" />
    </clipPath>
    <clipPath
       id="clipPath448"
       clipPathUnits="userSpaceOnUse">
      <path
         inkscape:connector-curvature="0"
         id="path446"
         d="M 0,800 H 800 V 0 H 0 Z" />
    </clipPath>
  </defs>
  <sodipodi:namedview
     id="base"
     pagecolor="#ffffff"
     bordercolor="#666666"
     borderopacity="1.0"
     inkscape:pageopacity="0.0"
     inkscape:pageshadow="2"
     inkscape:zoom="0.35"
     inkscape:cx="-518.33967"
     inkscape:cy="-65.063503"
     inkscape:document-units="mm"
     inkscape:current-layer="layer1"
     showgrid="false"
     fit-margin-top="0"
     fit-margin-left="0"
     fit-margin-right="0"
     fit-margin-bottom="0"
     inkscape:window-width="1366"
     inkscape:window-height="661"
     inkscape:window-x="0"
     inkscape:window-y="27"
     inkscape:window-maximized="1" />
  <metadata
     id="metadata5">
    <rdf:RDF>
      <cc:Work
         rdf:about="">
        <dc:format>image/svg+xml</dc:format>
        <dc:type
           rdf:resource="http://purl.org/dc/dcmitype/StillImage" />
        <dc:title></dc:title>
      </cc:Work>
    </rdf:RDF>
  </metadata>
  <g
     inkscape:label="Capa 1"
     inkscape:groupmode="layer"
     id="layer1"
     transform="translate(-242.97737,-69.787259)">
    <g
       id="g502"
       transform="matrix(0.35277777,0,0,-0.35277777,247.22412,94.410337)">
      <path
         d="m 0,0 c 0,0 -4.696,0.989 -3.708,6.921 0.989,5.932 3.955,4.944 5.438,7.416 1.483,2.471 3.461,6.673 9.393,6.673 0,0 -0.989,7.169 1.978,9.888 2.966,2.719 5.438,2.966 7.415,5.438 1.978,2.472 3.213,5.191 6.427,6.427 3.213,1.235 7.415,-0.495 7.415,-0.495 0,0 0.989,3.708 4.202,5.685 3.214,1.978 5.933,-0.741 9.146,2.472 3.214,3.214 8.652,8.899 13.842,9.393 5.191,0.495 6.674,-2.472 6.674,-2.472 0,0 2.719,3.214 9.146,5.191 6.427,1.978 11.618,3.461 14.584,1.483 0,0 3.46,3.708 6.921,4.202 3.46,0.495 5.191,-1.73 8.404,-1.236 3.214,0.495 6.674,3.461 12.606,0.248 0,0 4.45,2.719 12.112,0.988 7.663,-1.73 6.922,-7.415 6.922,-7.415 0,0 8.651,3.213 16.314,-2.719 7.662,-5.933 6.179,-10.876 6.179,-10.876 0,0 10.382,0.247 16.809,-5.933 6.426,-6.179 5.932,-10.628 5.932,-10.628 0,0 5.438,1.483 9.146,-2.967 3.707,-4.449 7.909,-17.055 7.662,-21.01 0,0 4.202,1.73 5.933,-2.225 1.73,-3.955 4.202,-14.831 2.471,-21.505 -1.73,-6.674 -3.213,-5.932 -3.213,-5.932 0,0 1.978,-8.899 -1.977,-13.101 -3.955,-4.202 -7.663,-4.943 -7.663,-4.943 0,0 4.944,-5.685 3.461,-15.573 -1.484,-9.887 -6.922,-12.606 -13.348,-16.314 -6.427,-3.708 -14.831,-8.157 -24.224,-8.651 -9.393,-0.495 -29.58,6.344 -29.58,6.344 0,0 8.569,-19.445 10.052,-23.894 0,0 -5.685,-6.427 -11.37,-5.191 -5.685,1.236 -13.842,13.842 -16.314,16.314 -2.472,2.472 -4.079,3.337 -5.932,6.674 -1.854,3.337 -5.809,4.573 -6.427,6.674 -0.618,2.101 -0.989,3.09 -2.348,3.337 -1.36,0.247 -5.933,0.741 -6.798,1.73 0,0 -1.607,-3.955 -3.584,-3.584 -1.978,0.371 -4.243,3.543 -8.198,2.389 -3.955,-1.153 -6.592,-4.943 -12.854,-3.295 -6.262,1.648 -19.115,7.086 -20.269,21.917 0,0 -5.767,0.164 -7.25,1.153 -1.483,0.989 -3.131,2.307 -5.933,1.318 -2.801,-0.988 -12.524,-6.591 -19.115,1.154 0,0 -3.79,-4.12 -8.24,-2.966 -4.449,1.153 -5.108,4.943 -7.909,5.932 -2.802,0.989 -14.007,9.723 -9.229,21.093 0,0 -3.131,0.33 -1.812,8.075 C -9.393,-8.651 -7.086,-4.861 0,0"
         style="fill:#f27c90;fill-opacity:1;fill-rule:nonzero;stroke:none"
         id="path504"
         inkscape:connector-curvature="0" />
    </g>
    <g
       id="g506"
       transform="matrix(0.35277777,0,0,-0.35277777,247.22412,94.410337)">
      <path
         d="m 0,0 c 0,0 -4.696,0.989 -3.708,6.921 0.989,5.932 3.955,4.944 5.438,7.416 1.483,2.471 3.461,6.673 9.393,6.673 0,0 -0.989,7.169 1.978,9.888 2.966,2.719 5.438,2.966 7.415,5.438 1.978,2.472 3.213,5.191 6.427,6.427 3.213,1.235 7.415,-0.495 7.415,-0.495 0,0 0.989,3.708 4.202,5.685 3.214,1.978 5.933,-0.741 9.146,2.472 3.214,3.214 8.652,8.899 13.842,9.393 5.191,0.495 6.674,-2.472 6.674,-2.472 0,0 2.719,3.214 9.146,5.191 6.427,1.978 11.618,3.461 14.584,1.483 0,0 3.46,3.708 6.921,4.202 3.46,0.495 5.191,-1.73 8.404,-1.236 3.214,0.495 6.674,3.461 12.606,0.248 0,0 4.45,2.719 12.112,0.988 7.663,-1.73 6.922,-7.415 6.922,-7.415 0,0 8.651,3.213 16.314,-2.719 7.662,-5.933 6.179,-10.876 6.179,-10.876 0,0 10.382,0.247 16.809,-5.933 6.426,-6.179 5.932,-10.628 5.932,-10.628 0,0 5.438,1.483 9.146,-2.967 3.707,-4.449 7.909,-17.055 7.662,-21.01 0,0 4.202,1.73 5.933,-2.225 1.73,-3.955 4.202,-14.831 2.471,-21.505 -1.73,-6.674 -3.213,-5.932 -3.213,-5.932 0,0 1.978,-8.899 -1.977,-13.101 -3.955,-4.202 -7.663,-4.943 -7.663,-4.943 0,0 4.944,-5.685 3.461,-15.573 -1.484,-9.887 -6.922,-12.606 -13.348,-16.314 -6.427,-3.708 -14.831,-8.157 -24.224,-8.651 -9.393,-0.495 -29.58,6.344 -29.58,6.344 0,0 8.569,-19.445 10.052,-23.894 0,0 -5.685,-6.427 -11.37,-5.191 -5.685,1.236 -13.842,13.842 -16.314,16.314 -2.472,2.472 -4.079,3.337 -5.932,6.674 -1.854,3.337 -5.809,4.573 -6.427,6.674 -0.618,2.101 -0.989,3.09 -2.348,3.337 -1.36,0.247 -5.933,0.741 -6.798,1.73 0,0 -1.607,-3.955 -3.584,-3.584 -1.978,0.371 -4.243,3.543 -8.198,2.389 -3.955,-1.153 -6.592,-4.943 -12.854,-3.295 -6.262,1.648 -19.115,7.086 -20.269,21.917 0,0 -5.767,0.164 -7.25,1.153 -1.483,0.989 -3.131,2.307 -5.933,1.318 -2.801,-0.988 -12.524,-6.591 -19.115,1.154 0,0 -3.79,-4.12 -8.24,-2.966 -4.449,1.153 -5.108,4.943 -7.909,5.932 -2.802,0.989 -14.007,9.723 -9.229,21.093 0,0 -3.131,0.33 -1.812,8.075 C -9.393,-8.651 -7.086,-4.861 0,0 Z"
         style="fill:none;stroke:#bf5a70;stroke-width:2;stroke-linecap:butt;stroke-linejoin:miter;stroke-miterlimit:10;stroke-dasharray:none;stroke-opacity:1"
         id="path508"
         inkscape:connector-curvature="0" />
    </g>
    <g
       id="g510"
       transform="matrix(0.35277777,0,0,-0.35277777,247.22412,94.410337)">
      <path
         d="M 0,0 C 0,0 9.063,0.577 9.887,4.532"
         style="fill:none;stroke:#bf5a70;stroke-width:2;stroke-linecap:round;stroke-linejoin:miter;stroke-miterlimit:10;stroke-dasharray:none;stroke-opacity:1"
         id="path512"
         inkscape:connector-curvature="0" />
    </g>
    <g
       id="g514"
       transform="matrix(0.35277777,0,0,-0.35277777,249.49132,96.939154)">
      <path
         d="M 0,0 C 14.666,2.307 16.256,13.689 15.655,18.621 14.831,25.377 4.696,28.179 4.696,28.179"
         style="fill:none;stroke:#bf5a70;stroke-width:2;stroke-linecap:round;stroke-linejoin:miter;stroke-miterlimit:10;stroke-dasharray:none;stroke-opacity:1"
         id="path516"
         inkscape:connector-curvature="0" />
    </g>
    <g
       id="g518"
       transform="matrix(0.35277777,0,0,-0.35277777,255.01406,90.370044)">
      <path
         d="M 0,0 C 0,0 0.494,4.12 5.438,4.449"
         style="fill:none;stroke:#bf5a70;stroke-width:2;stroke-linecap:round;stroke-linejoin:miter;stroke-miterlimit:10;stroke-dasharray:none;stroke-opacity:1"
         id="path520"
         inkscape:connector-curvature="0" />
    </g>
    <g
       id="g522"
       transform="matrix(0.35277777,0,0,-0.35277777,244.08489,103.04316)">
      <path
         d="m 0,0 c 0,0 5.273,-0.989 8.404,1.318 3.131,2.307 7.086,4.12 9.723,0.989"
         style="fill:none;stroke:#bf5a70;stroke-width:2;stroke-linecap:round;stroke-linejoin:miter;stroke-miterlimit:10;stroke-dasharray:none;stroke-opacity:1"
         id="path524"
         inkscape:connector-curvature="0" />
    </g>
    <g
       id="g526"
       transform="matrix(0.35277777,0,0,-0.35277777,253.03751,111.53068)">
      <path
         d="M 0,0 V 0 C 1.318,4.284 -0.989,5.438 -2.801,6.592 -4.614,7.745 -8.734,9.063 -8.239,11.7"
         style="fill:none;stroke:#bf5a70;stroke-width:2;stroke-linecap:round;stroke-linejoin:miter;stroke-miterlimit:10;stroke-dasharray:none;stroke-opacity:1"
         id="path528"
         inkscape:connector-curvature="0" />
    </g>
    <g
       id="g530"
       transform="matrix(0.35277777,0,0,-0.35277777,264.43167,112.8096)">
      <path
         d="m 0,0 c -0.659,4.284 2.142,9.887 10.711,14.172 8.569,4.284 23.235,3.955 28.179,5.767 4.944,1.813 10.052,4.614 15.655,5.933 5.603,1.318 10.711,0.824 17.632,3.79 6.921,2.966 13.843,8.404 15.326,11.535 1.483,3.131 2.801,4.944 7.086,4.614"
         style="fill:none;stroke:#bf5a70;stroke-width:2;stroke-linecap:round;stroke-linejoin:miter;stroke-miterlimit:10;stroke-dasharray:none;stroke-opacity:1"
         id="path532"
         inkscape:connector-curvature="0" />
    </g>
    <g
       id="g534"
       transform="matrix(0.35277777,0,0,-0.35277777,301.92789,97.869288)">
      <path
         d="m 0,0 c 0,0 7.086,-7.251 2.142,-14.337 -4.943,-7.085 -13.677,-13.018 -29.497,-15.819 -15.819,-2.802 -20.434,-1.648 -25.048,-3.955 -4.614,-2.307 -10.546,-3.955 -14.666,-4.614 -4.12,-0.659 -12.359,-3.296 -13.348,-8.569 -0.988,-5.273 5.109,-4.285 5.768,-1.483"
         style="fill:none;stroke:#bf5a70;stroke-width:2;stroke-linecap:round;stroke-linejoin:miter;stroke-miterlimit:10;stroke-dasharray:none;stroke-opacity:1"
         id="path536"
         inkscape:connector-curvature="0" />
    </g>
    <g
       id="g538"
       transform="matrix(0.35277777,0,0,-0.35277777,270.07065,107.11252)">
      <path
         d="m 0,0 c 0,0 18.786,2.801 21.258,8.075 2.471,5.273 1.812,9.722 1.318,14.995 -0.494,5.274 -4.284,8.569 -2.801,16.15 1.483,7.58 7.909,7.745 9.393,11.04 1.483,3.296 0.823,7.251 6.756,10.876"
         style="fill:none;stroke:#bf5a70;stroke-width:2;stroke-linecap:round;stroke-linejoin:miter;stroke-miterlimit:10;stroke-dasharray:none;stroke-opacity:1"
         id="path540"
         inkscape:connector-curvature="0" />
    </g>
    <g
       id="g542"
       transform="matrix(0.35277777,0,0,-0.35277777,278.15123,101.99675)">
      <path
         d="m 0,0 c 0,0 -0.824,-5.108 5.768,-6.097 6.591,-0.989 14.831,3.296 14.995,10.382 0.112,4.803 -2.471,10.546 -1.318,14.501 1.154,3.955 2.966,8.898 7.086,13.183 4.12,4.284 -2.637,11.865 7.086,17.303"
         style="fill:none;stroke:#bf5a70;stroke-width:2;stroke-linecap:round;stroke-linejoin:miter;stroke-miterlimit:10;stroke-dasharray:none;stroke-opacity:1"
         id="path544"
         inkscape:connector-curvature="0" />
    </g>
    <g
       id="g546"
       transform="matrix(0.35277777,0,0,-0.35277777,260.94369,84.207863)">
      <path
         d="m 0,0 c 3.625,3.625 -4.532,13.348 -4.532,13.348 0,0 9.146,-12.689 14.749,-15.161 5.603,-2.472 9.558,-0.164 10.052,3.461 0.494,3.625 0.659,9.558 4.449,13.183 3.79,3.625 3.461,9.722 3.461,9.722"
         style="fill:none;stroke:#bf5a70;stroke-width:2;stroke-linecap:round;stroke-linejoin:miter;stroke-miterlimit:10;stroke-dasharray:none;stroke-opacity:1"
         id="path548"
         inkscape:connector-curvature="0" />
    </g>
    <g
       id="g550"
       transform="matrix(0.35277777,0,0,-0.35277777,279.66271,71.825398)">
      <path
         d="m 0,0 c 0,0 4.12,-9.063 0.165,-14.831 -3.955,-5.768 -15.985,-13.842 -17.797,-20.763 -1.813,-6.921 4.119,-14.172 4.119,-14.172"
         style="fill:none;stroke:#bf5a70;stroke-width:2;stroke-linecap:round;stroke-linejoin:miter;stroke-miterlimit:10;stroke-dasharray:none;stroke-opacity:1"
         id="path552"
         inkscape:connector-curvature="0" />
    </g>
    <g
       id="g554"
       transform="matrix(0.35277777,0,0,-0.35277777,273.44239,84.382276)">
      <path
         d="m 0,0 c 0,0 -0.165,-9.393 -4.284,-17.632 -3.143,-6.285 -3.955,-12.359 -0.989,-18.127 2.966,-5.768 -1.483,-15.655 -11.041,-12.194"
         style="fill:none;stroke:#bf5a70;stroke-width:2;stroke-linecap:round;stroke-linejoin:miter;stroke-miterlimit:10;stroke-dasharray:none;stroke-opacity:1"
         id="path556"
         inkscape:connector-curvature="0" />
    </g>
    <g
       id="g558"
       transform="matrix(0.35277777,0,0,-0.35277777,262.28075,89.672426)">
      <path
         d="m 0,0 c 0,0 4.614,-6.427 10.711,-7.251 0,0 -2.307,-6.591 1.483,-12.194 0,0 -8.239,-7.086 -14.007,-5.603 -5.767,1.483 -9.063,6.427 -9.063,6.427"
         style="fill:none;stroke:#bf5a70;stroke-width:2;stroke-linecap:round;stroke-linejoin:miter;stroke-miterlimit:10;stroke-dasharray:none;stroke-opacity:1"
         id="path560"
         inkscape:connector-curvature="0" />
    </g>
    <g
       id="g562"
       transform="matrix(0.35277777,0,0,-0.35277777,259.83914,97.81115)">
      <path
         d="m 0,0 c 0,0 -3.461,-9.063 0.659,-14.337 4.12,-5.273 14.502,-6.097 14.337,-14.666"
         style="fill:none;stroke:#bf5a70;stroke-width:2;stroke-linecap:round;stroke-linejoin:miter;stroke-miterlimit:10;stroke-dasharray:none;stroke-opacity:1"
         id="path564"
         inkscape:connector-curvature="0" />
    </g>
    <g
       id="g566"
       transform="matrix(0.35277777,0,0,-0.35277777,254.66523,104.26398)">
      <path
         d="M 0,0 C 0,0 -1.648,3.131 -7.086,4.779"
         style="fill:none;stroke:#bf5a70;stroke-width:2;stroke-linecap:round;stroke-linejoin:miter;stroke-miterlimit:10;stroke-dasharray:none;stroke-opacity:1"
         id="path568"
         inkscape:connector-curvature="0" />
    </g>
    <g
       id="g570"
       transform="matrix(0.35277777,0,0,-0.35277777,252.63055,102.63623)">
      <path
         d="M 0,0 C 0,0 -2.307,12.689 4.779,15.82"
         style="fill:none;stroke:#bf5a70;stroke-width:2;stroke-linecap:round;stroke-linejoin:miter;stroke-miterlimit:10;stroke-dasharray:none;stroke-opacity:1"
         id="path572"
         inkscape:connector-curvature="0" />
    </g>
    <g
       id="g574"
       transform="matrix(0.35277777,0,0,-0.35277777,253.15375,97.985563)">
      <path
         d="M 0,0 C 0,0 -0.659,1.977 -2.966,2.637"
         style="fill:none;stroke:#bf5a70;stroke-width:2;stroke-linecap:round;stroke-linejoin:miter;stroke-miterlimit:10;stroke-dasharray:none;stroke-opacity:1"
         id="path576"
         inkscape:connector-curvature="0" />
    </g>
    <g
       id="g578"
       transform="matrix(0.35277777,0,0,-0.35277777,266.05942,92.230312)">
      <path
         d="M 0,0 C 0,0 1.813,-1.154 4.944,1.154"
         style="fill:none;stroke:#bf5a70;stroke-width:2;stroke-linecap:round;stroke-linejoin:miter;stroke-miterlimit:10;stroke-dasharray:none;stroke-opacity:1"
         id="path580"
         inkscape:connector-curvature="0" />
    </g>
    <g
       id="g582"
       transform="matrix(0.35277777,0,0,-0.35277777,280.27312,118.95725)">
      <path
         d="M 0,0 C -0.247,0.453 -2.225,3.255 -1.071,10.176"
         style="fill:none;stroke:#bf5a70;stroke-width:2;stroke-linecap:round;stroke-linejoin:miter;stroke-miterlimit:10;stroke-dasharray:none;stroke-opacity:1"
         id="path584"
         inkscape:connector-curvature="0" />
    </g>
    <g
       id="g586"
       transform="matrix(0.35277777,0,0,-0.35277777,283.49952,120.74488)">
      <path
         d="m 0,0 c 0,0 3.955,-4.202 11.7,-0.082 7.745,4.119 3.625,6.426 5.768,9.228 2.142,2.801 13.677,5.273 15.49,9.557 1.812,4.285 1.153,9.064 -0.989,11.865"
         style="fill:none;stroke:#bf5a70;stroke-width:2;stroke-linecap:round;stroke-linejoin:miter;stroke-miterlimit:10;stroke-dasharray:none;stroke-opacity:1"
         id="path588"
         inkscape:connector-curvature="0" />
    </g>
    <g
       id="g590"
       transform="matrix(0.35277777,0,0,-0.35277777,296.34705,109.37972)">
      <path
         d="m 0,0 c 0,0 -2.472,-8.075 2.307,-10.217 3.498,-1.568 6.756,-0.329 9.063,1.978 2.307,2.307 5.109,5.108 8.734,5.602 3.625,0.495 18.127,2.143 18.127,16.15"
         style="fill:none;stroke:#bf5a70;stroke-width:2;stroke-linecap:round;stroke-linejoin:miter;stroke-miterlimit:10;stroke-dasharray:none;stroke-opacity:1"
         id="path592"
         inkscape:connector-curvature="0" />
    </g>
    <g
       id="g594"
       transform="matrix(0.35277777,0,0,-0.35277777,310.64792,104.84533)">
      <path
         d="m 0,0 c 0,0 -5.603,-8.569 -1.318,-11.535 4.284,-2.966 11.7,-2.966 18.044,0.082"
         style="fill:none;stroke:#bf5a70;stroke-width:2;stroke-linecap:round;stroke-linejoin:miter;stroke-miterlimit:10;stroke-dasharray:none;stroke-opacity:1"
         id="path596"
         inkscape:connector-curvature="0" />
    </g>
    <g
       id="g598"
       transform="matrix(0.35277777,0,0,-0.35277777,319.9493,102.51996)">
      <path
         d="m 0,0 c -0.494,0 -6.591,2.966 -9.558,0 -2.966,-2.966 2.143,-5.438 2.143,-5.438"
         style="fill:none;stroke:#bf5a70;stroke-width:2;stroke-linecap:round;stroke-linejoin:miter;stroke-miterlimit:10;stroke-dasharray:none;stroke-opacity:1"
         id="path600"
         inkscape:connector-curvature="0" />
    </g>
    <g
       id="g602"
       transform="matrix(0.35277777,0,0,-0.35277777,303.03244,82.173182)">
      <path
         d="m 0,0 c -0.989,5.273 3.213,12.524 3.213,12.524 0,0 -4.202,-6.427 -8.321,-6.921"
         style="fill:none;stroke:#bf5a70;stroke-width:2;stroke-linecap:round;stroke-linejoin:miter;stroke-miterlimit:10;stroke-dasharray:none;stroke-opacity:1"
         id="path604"
         inkscape:connector-curvature="0" />
    </g>
    <g
       id="g606"
       transform="matrix(0.35277777,0,0,-0.35277777,309.65969,85.603099)">
      <path
         d="m 0,0 c 3.296,-0.165 7.168,5.685 7.168,5.685 0,0 -2.719,-6.509 -2.389,-9.475"
         style="fill:none;stroke:#bf5a70;stroke-width:2;stroke-linecap:round;stroke-linejoin:miter;stroke-miterlimit:10;stroke-dasharray:none;stroke-opacity:1"
         id="path608"
         inkscape:connector-curvature="0" />
    </g>
    <g
       id="g610"
       transform="matrix(0.35277777,0,0,-0.35277777,318.08903,91.939658)">
      <path
         d="m 0,0 c -3.461,-8.239 -9.887,-13.677 -14.831,-14.007 -5.295,-0.353 -8.898,3.625 -8.569,7.415 0.174,1.998 1.935,7.531 -1.153,10.217 -3.791,3.296 -14.337,-0.164 -21.588,4.614 -7.25,4.779 -6.426,15.985 -6.426,15.985"
         style="fill:none;stroke:#bf5a70;stroke-width:2;stroke-linecap:round;stroke-linejoin:miter;stroke-miterlimit:10;stroke-dasharray:none;stroke-opacity:1"
         id="path612"
         inkscape:connector-curvature="0" />
    </g>
    <g
       id="g614"
       transform="matrix(0.35277777,0,0,-0.35277777,298.32359,82.928938)">
      <path
         d="M 0,0 C 0,0 -13.018,-4.614 -23.07,0.165 -33.122,4.944 -33.122,8.734 -33.617,12.194"
         style="fill:none;stroke:#bf5a70;stroke-width:2;stroke-linecap:round;stroke-linejoin:miter;stroke-miterlimit:10;stroke-dasharray:none;stroke-opacity:1"
         id="path616"
         inkscape:connector-curvature="0" />
    </g>
    <g
       id="g618"
       transform="matrix(0.35277777,0,0,-0.35277777,289.51636,70.691782)">
      <path
         d="M 0,0 C 0,0 3.213,-6.839 -0.412,-14.089"
         style="fill:none;stroke:#bf5a70;stroke-width:2;stroke-linecap:round;stroke-linejoin:miter;stroke-miterlimit:10;stroke-dasharray:none;stroke-opacity:1"
         id="path620"
         inkscape:connector-curvature="0" />
    </g>
    <g
       id="g622"
       transform="matrix(0.35277777,0,0,-0.35277777,296.23081,72.959015)">
      <path
         d="M 0,0 C 0,0 0.659,-8.157 -0.824,-10.958"
         style="fill:none;stroke:#bf5a70;stroke-width:2;stroke-linecap:round;stroke-linejoin:miter;stroke-miterlimit:10;stroke-dasharray:none;stroke-opacity:1"
         id="path624"
         inkscape:connector-curvature="0" />
    </g>
    <g
       id="g626"
       transform="matrix(0.35277777,0,0,-0.35277777,298.55611,86.591335)">
      <path
         d="m 0,0 c -7.58,-0.494 -10.546,-10.546 -10.546,-10.546 0,0 3.79,11.535 -5.768,15.16"
         style="fill:none;stroke:#bf5a70;stroke-width:2;stroke-linecap:round;stroke-linejoin:miter;stroke-miterlimit:10;stroke-dasharray:none;stroke-opacity:1"
         id="path628"
         inkscape:connector-curvature="0" />
    </g>
    <g
       id="g630"
       transform="matrix(0.35277777,0,0,-0.35277777,296.40519,96.764741)">
      <path
         d="m 0,0 c -4.284,0.33 -5.438,8.404 -5.438,8.404 0,0 0.989,-15.16 -2.966,-18.127"
         style="fill:none;stroke:#bf5a70;stroke-width:2;stroke-linecap:round;stroke-linejoin:miter;stroke-miterlimit:10;stroke-dasharray:none;stroke-opacity:1"
         id="path632"
         inkscape:connector-curvature="0" />
    </g>
    <g
       id="g634"
       transform="matrix(0.35277777,0,0,-0.35277777,316.57759,94.555646)">
      <path
         d="m 0,0 c 0,0 -1.318,-5.932 -0.165,-8.239 0,0 -8.404,-1.154 -11.205,-8.075"
         style="fill:none;stroke:#bf5a70;stroke-width:2;stroke-linecap:round;stroke-linejoin:miter;stroke-miterlimit:10;stroke-dasharray:none;stroke-opacity:1"
         id="path636"
         inkscape:connector-curvature="0" />
    </g>
    <g
       id="g638"
       transform="matrix(0.35277777,0,0,-0.35277777,310.29913,95.776469)">
      <path
         d="m 0,0 c 0,0 -4.084,-2.806 -4.284,-6.921 -0.33,-6.756 3.625,-6.756 3.625,-12.854"
         style="fill:none;stroke:#bf5a70;stroke-width:2;stroke-linecap:round;stroke-linejoin:miter;stroke-miterlimit:10;stroke-dasharray:none;stroke-opacity:1"
         id="path640"
         inkscape:connector-curvature="0" />
    </g>
    <g
       id="g642"
       transform="matrix(0.35277777,0,0,-0.35277777,294.07985,120.94833)">
      <path
         d="M 0,0 C 0,0 -2.637,1.318 -9.063,3.461"
         style="fill:#f27c90;fill-opacity:1;fill-rule:nonzero;stroke:#bf5a70;stroke-width:2;stroke-linecap:round;stroke-linejoin:miter;stroke-miterlimit:10;stroke-dasharray:none;stroke-opacity:1"
         id="path644"
         inkscape:connector-curvature="0" />
    </g>
    <g
       id="g646"
       transform="matrix(0.35277777,0,0,-0.35277777,296.34705,114.84432)">
      <path
         d="M 0,0 C 0,0 20.434,-0.33 34.935,-4.944"
         style="fill:none;stroke:#bf5a70;stroke-width:2;stroke-linecap:round;stroke-linejoin:miter;stroke-miterlimit:10;stroke-dasharray:none;stroke-opacity:1"
         id="path648"
         inkscape:connector-curvature="0" />
    </g>
  </g>
</svg>
