<?xml version="1.0" encoding="UTF-8" standalone="no"?>
<!-- Created with Inkscape (http://www.inkscape.org/) -->

<svg
   xmlns:dc="http://purl.org/dc/elements/1.1/"
   xmlns:cc="http://creativecommons.org/ns#"
   xmlns:rdf="http://www.w3.org/1999/02/22-rdf-syntax-ns#"
   xmlns:svg="http://www.w3.org/2000/svg"
   xmlns="http://www.w3.org/2000/svg"
   xmlns:sodipodi="http://sodipodi.sourceforge.net/DTD/sodipodi-0.dtd"
   xmlns:inkscape="http://www.inkscape.org/namespaces/inkscape"
   width="233.74991mm"
   height="177.07758mm"
   viewBox="0 0 233.74991 177.07758"
   version="1.1"
   id="svg8"
   inkscape:version="0.92.3 (2405546, 2018-03-11)"
   sodipodi:docname="handshake.svg">
  <defs
     id="defs2">
    <clipPath
       id="clipPath28"
       clipPathUnits="userSpaceOnUse">
      <path
         inkscape:connector-curvature="0"
         id="path26"
         d="M 0,800 H 800 V 0 H 0 Z" />
    </clipPath>
    <clipPath
       id="clipPath160"
       clipPathUnits="userSpaceOnUse">
      <path
         inkscape:connector-curvature="0"
         id="path158"
         d="M 0,800 H 800 V 0 H 0 Z" />
    </clipPath>
    <clipPath
       id="clipPath404"
       clipPathUnits="userSpaceOnUse">
      <path
         inkscape:connector-curvature="0"
         id="path402"
         d="m 377.595,564.55 h -0.082 -9.092 c 0,0 1.218,-38.795 -1.325,-42.896 v 0 c -2.542,-4.102 -8.12,-9.515 -11.401,-11.155 v 0 l 3.035,-10.663 c 0,0 16.549,7.062 18.824,17.792 v 0 c 2.274,-10.73 18.823,-17.792 18.823,-17.792 v 0 l 3.035,10.663 c -3.281,1.64 -8.858,7.053 -11.4,11.155 v 0 c -2.543,4.101 -1.326,42.896 -1.326,42.896 v 0 z" />
    </clipPath>
    <clipPath
       id="clipPath448"
       clipPathUnits="userSpaceOnUse">
      <path
         inkscape:connector-curvature="0"
         id="path446"
         d="M 0,800 H 800 V 0 H 0 Z" />
    </clipPath>
  </defs>
  <sodipodi:namedview
     id="base"
     pagecolor="#ffffff"
     bordercolor="#666666"
     borderopacity="1.0"
     inkscape:pageopacity="0.0"
     inkscape:pageshadow="2"
     inkscape:zoom="0.35"
     inkscape:cx="990.30339"
     inkscape:cy="246.06337"
     inkscape:document-units="mm"
     inkscape:current-layer="layer1"
     showgrid="false"
     fit-margin-top="0"
     fit-margin-left="0"
     fit-margin-right="0"
     fit-margin-bottom="0"
     inkscape:window-width="1366"
     inkscape:window-height="661"
     inkscape:window-x="0"
     inkscape:window-y="27"
     inkscape:window-maximized="1" />
  <metadata
     id="metadata5">
    <rdf:RDF>
      <cc:Work
         rdf:about="">
        <dc:format>image/svg+xml</dc:format>
        <dc:type
           rdf:resource="http://purl.org/dc/dcmitype/StillImage" />
        <dc:title></dc:title>
      </cc:Work>
    </rdf:RDF>
  </metadata>
  <g
     inkscape:label="Capa 1"
     inkscape:groupmode="layer"
     id="layer1"
     transform="translate(156.18444,-36.86003)">
    <path
       inkscape:connector-curvature="0"
       id="path1939"
       style="fill:#82bfab;fill-opacity:1;fill-rule:nonzero;stroke:none;stroke-width:0.03527778"
       d="m -132.63934,131.34275 0.1023,-0.0642 -0.11077,0.0586 c -0.51223,0.26917 -0.99448,0.5648 -1.45838,0.91299 l 1.46685,-0.90099 v -0.006" />
    <path
       inkscape:connector-curvature="0"
       id="path1941"
       style="fill:#aad4c8;fill-opacity:1;fill-rule:nonzero;stroke:none;stroke-width:0.03527778"
       d="m -60.086706,158.25899 c -2.869141,-2.33574 -5.572125,-4.92866 -8.066264,-7.77769 l -29.224466,18.09538 10.316987,6.38881 2.826809,-1.74943 c 0.627944,-0.50165 1.310922,-0.94685 2.062339,-1.28023 l 22.084595,-13.67684" />
    <path
       inkscape:connector-curvature="0"
       id="path1943"
       style="fill:#aad4c8;fill-opacity:1;fill-rule:nonzero;stroke:none;stroke-width:0.03527778"
       d="m -78.811093,133.94201 c -1.553986,-3.42229 -2.813756,-6.9155 -3.753203,-10.45315 l -39.604604,24.52193 -1.19591,0.73343 -0.33302,0.21237 0.35454,-0.19332 c 2.26765,2.86949 4.84046,5.53967 7.72019,7.96502 l 1.56704,-0.97155 2.88678,-1.78294 32.358187,-20.03179" />
    <path
       inkscape:connector-curvature="0"
       id="path1945"
       style="fill:#aad4c8;fill-opacity:1;fill-rule:nonzero;stroke:none;stroke-width:0.03527778"
       d="m -84.622401,101.61663 30.761518,-19.042591 0.0127,0.02575 13.250334,-8.195382 0.492831,-0.309386 0.796572,-0.83573 c -0.796572,-0.9652 -1.182864,-2.193925 -0.9906,-3.423003 l 0.04692,-0.19932 c 0.102305,-0.4953 0.269169,-0.977547 0.542219,-1.433689 l 0.401461,-0.424744 c 1.364192,-1.654528 3.710517,-2.155473 5.602464,-1.036461 l 0.136525,0.08431 37.84565,23.634348 7.598481,4.747331 c 2.147711,1.498953 4.882798,2.122311 7.628467,1.487311 5.158317,-1.19768 8.369653,-6.344356 7.178323,-11.491031 -0.611011,-2.63772 -2.259189,-4.74592 -4.40055,-6.033206 l -0.26917,-0.166864 -47.412631,-29.611463 -0.0254,0.0254 -0.115358,-0.07796 c -4.4196,-2.740378 -9.050514,-4.831292 -13.766801,-6.43255 -11.657189,-3.962753 -23.95079,-4.592814 -35.578347,-2.084211 -2.728383,0.579966 -5.405614,1.326091 -8.031692,2.244019 -2.361494,0.824442 -4.669367,1.789289 -6.934553,2.876903 -4.748389,0.9652 -9.848851,0.211667 -14.296322,-2.535061 l -10.57275,-6.54932 -41.46233,66.97593 9.60579,5.94289 5.9757,3.69888 c 3.08293,2.77989 5.14103,6.39445 6.01663,10.28135 l 0.17286,0.92005 c 0.26247,1.40723 0.62371,2.79082 1.00118,4.17406 0.23072,0.83574 0.49989,1.66018 0.76447,2.48391 l 0.11077,-0.0586 47.914639,-29.66191" />
    <path
       inkscape:connector-curvature="0"
       id="path1947"
       style="fill:#616e7d;fill-opacity:1;fill-rule:nonzero;stroke:none;stroke-width:0.03527778"
       d="m 36.107334,36.860033 -10.574867,6.54932 C 21.08288,46.156081 15.984535,46.909614 11.236146,45.944414 8.9797794,44.8568 6.6627348,43.891953 4.3019458,43.067511 1.6758678,42.149583 -1.005949,41.403458 -3.7216325,40.823492 -15.357303,38.314889 -27.651256,38.94495 -39.308446,42.907703 c 4.716287,1.601258 9.347201,3.692172 13.766801,6.43255 l 0.115358,0.07796 0.0254,-0.0254 47.412631,29.611463 0.26917,0.166864 c 2.141361,1.287286 3.789539,3.395486 4.40055,6.033206 1.19133,5.146675 -2.020006,10.293351 -7.178323,11.491031 -2.745669,0.635 -5.480756,0.01164 -7.628467,-1.487311 l -7.598481,-4.747331 -37.84565,-23.634348 -0.136525,-0.08431 c -1.891947,-1.119012 -4.238272,-0.618067 -5.602464,1.036461 l 0.405342,0.424744 c 1.010355,1.646061 0.758472,3.646664 -0.405342,5.056012 l -0.796572,0.83573 -0.492831,0.309386 -13.250334,8.195382 -0.0127,-0.02575 -30.761518,19.042588 -47.914639,29.66191 -0.1023,0.0706 -1.46685,0.90099 c -2.38019,1.81363 -3.94335,4.64362 -3.94335,7.874 0,5.48041 4.43689,9.91941 9.91941,9.91941 1.60161,0 3.09597,-0.4184 4.4323,-1.08691 l 0.33302,-0.21237 1.19591,-0.73343 39.604604,-24.52193 c 0.939447,3.53765 2.199217,7.03086 3.753203,10.45315 l -32.358187,20.03179 -2.88678,1.78294 c -2.06658,1.81892 -3.40749,4.45135 -3.40749,7.4235 0,5.48075 4.44571,9.9194 9.92611,9.9194 2.61091,0 4.97664,-1.02905 6.74864,-2.68922 l 0.14111,0.19332 3.270254,-2.02706 29.224466,-18.09538 c 2.494139,2.84903 5.197123,5.44195 8.066264,7.77769 l -22.084595,13.67684 c -0.751417,0.33338 -1.434395,0.77858 -2.062339,1.28023 -2.293409,1.80058 -3.787776,4.56036 -3.787776,7.69338 0,5.4423 4.411134,9.8425 9.857318,9.8425 2.854678,0 5.408083,-1.22767 7.205839,-3.17147 l 0.297039,0.37994 2.345972,-1.4538 18.694401,-11.57922 5.611284,-3.47416 v -0.35419 -4.63726 l -0.04727,-0.94686 0.04727,-0.94474 c 0.480131,-5.00556 4.696531,-8.92316 9.829448,-8.92316 5.408084,0.007 9.801931,4.3681 9.855553,9.77195 v 0.1023 0.096 l -0.0088,12.1987 -0.0042,17.37501 10.858853,-6.72218 v -1.31198 l -0.0127,-0.0974 0.0127,-0.096 v -10.50537 l 0.0127,-15.06714 v -7.75723 l 0.0046,-2.63807 -0.02999,-0.46955 0.02999,-0.47625 c 0.110772,-2.44475 1.120775,-4.65667 2.702984,-6.3112 1.7952859,-1.87783 4.308475,-3.04905 7.113764,-3.0554 2.80105578,0.006 5.3205948,1.17757 7.1116477,3.0554 1.6887473,1.76989 2.7262669,4.15608 2.7262669,6.7938 l -0.01905,0.4759 0.044803,-0.006 v 9.80404 l -0.00423,15.54304 10.8542674,-6.72324 V 158.3747 l 0.0088,-13.98553 v -0.0321 l -0.0127,-0.35454 0.0635,-0.91899 v -1.20932 h 0.192264 c 0.670983,-2.9912 2.694869,-5.47441 5.4102,-6.75428 1.275292,-0.60537 2.690284,-0.97155 4.189236,-0.97155 4.71417,0.006 8.634237,3.31258 9.603318,7.72583 h 0.18803 v 1.53141 l 0.04233,0.39864 0.02611,0.21202 -0.02611,0.45085 v 12.48022 c 7.3787,-6.15739 12.868275,-13.92767 16.213667,-22.47759 1.242836,-3.17148 2.186517,-6.45301 2.837392,-9.79029 l 0.164395,-0.92005 c 0.881944,-3.8869 2.935464,-7.50146 6.022975,-10.28135 l 5.971823,-3.69888 9.6012,-5.94289 L 36.10738,36.860386" />
    <path
       inkscape:connector-curvature="0"
       id="path1949"
       style="fill:#aad4c8;fill-opacity:1;fill-rule:nonzero;stroke:none;stroke-width:0.03527778"
       d="m 6.2189403,151.002 -0.044803,0.006 0.01905,-0.4759 c 0,-2.63772 -1.0375196,-5.02391 -2.7262669,-6.7938 -1.7910529,-1.87783 -4.31059192,-3.04905 -7.1116477,-3.0554 -2.805289,0.006 -5.3184781,1.17757 -7.1137637,3.0554 -1.582209,1.65453 -2.592212,3.86645 -2.702984,6.3112 l -0.02999,0.47625 0.02999,0.46955 -0.0046,2.63807 v 7.75723 l -0.0127,15.06714 v 10.50537 l -0.0127,0.096 0.0127,0.0974 v 1.31198 l 0.119592,-0.078 c 0.663575,4.79954 4.7226359,8.50477 9.7017417,8.50477 5.0066226,0 9.0991978,-3.76309 9.7077395,-8.60743 h 0.083256 v -0.79834 l 0.044803,-0.43039 -0.044803,-0.43038 v -10.2362 l 0.081139,-0.0438 0.00423,-15.54304 V 151.002" />
    <path
       inkscape:connector-curvature="0"
       id="path1951"
       style="fill:#aad4c8;fill-opacity:1;fill-rule:nonzero;stroke:none;stroke-width:0.03527778"
       d="m -24.324562,165.61723 v -0.19826 c -0.05362,-5.40385 -4.447469,-9.76454 -9.855553,-9.77195 -5.132917,0 -9.349317,3.9176 -9.829448,8.92316 l -0.04727,0.94474 0.04727,0.94686 v 4.63726 0.35419 6.94761 l -5.611284,-3.47345 -18.694401,11.57922 10.312401,6.38034 2.825045,-1.74837 0.21343,-0.12911 10.94599,-6.78004 v 6.93455 4.61822 l -0.0042,11.57393 v 0.0258 l 0.512587,-0.31609 c 1.255183,3.97651 4.936067,6.87176 9.329914,6.87176 5.004859,0 9.095317,-3.75779 9.708092,-8.60214 h 0.08326 v -0.79728 l 0.0448,-0.43144 -0.0448,-0.43039 v -8.44727 l 0.05115,-0.0381 0.0042,-17.37501 0.0088,-12.1987" />
    <path
       inkscape:connector-curvature="0"
       id="path1953"
       style="fill:#aad4c8;fill-opacity:1;fill-rule:nonzero;stroke:none;stroke-width:0.03527778"
       d="m 36.780081,144.01594 -0.02611,-0.21202 -0.04233,-0.39864 v -1.53141 h -0.18803 c -0.969081,-4.41325 -4.889148,-7.71948 -9.603318,-7.72583 -1.498952,0 -2.913944,0.36618 -4.189236,0.97155 -2.715331,1.27987 -4.739217,3.76308 -5.4102,6.75428 h -0.192264 v 1.20932 l -0.0635,0.91899 0.0127,0.35454 v 0.0321 l -0.0088,13.98553 v 11.25149 l 0.05962,-0.0385 v 1.58856 l -0.04233,0.41204 0.04233,0.4184 v 0.81033 h 0.08608 c 0.608189,4.84434 4.69653,8.60742 9.705622,8.60742 5.004506,0 9.103784,-3.76308 9.705623,-8.60742 h 0.08572 v -0.79869 l 0.04233,-0.43004 -0.04233,-0.42474 v -14.18414 l 0.04233,-0.0321 v -12.48022 l 0.02611,-0.45085" />
    <path
       inkscape:connector-curvature="0"
       id="path1955"
       style="fill:#616e7d;fill-opacity:1;fill-rule:nonzero;stroke:none;stroke-width:0.03527778"
       d="m -44.018382,191.16398 v -6.93455 l -10.94599,6.78004 -0.21343,0.12911 c -2.587978,1.77518 -4.285545,4.74592 -4.285545,8.11178 0,5.44159 4.4069,9.84814 9.847087,9.84814 2.079625,0 3.998736,-0.64946 5.593644,-1.74237 l 0.0042,-11.57393 v -4.61822" />
  </g>
</svg>
