<?xml version="1.0" encoding="UTF-8" standalone="no"?>
<!-- Created with Inkscape (http://www.inkscape.org/) -->

<svg
   xmlns:dc="http://purl.org/dc/elements/1.1/"
   xmlns:cc="http://creativecommons.org/ns#"
   xmlns:rdf="http://www.w3.org/1999/02/22-rdf-syntax-ns#"
   xmlns:svg="http://www.w3.org/2000/svg"
   xmlns="http://www.w3.org/2000/svg"
   xmlns:sodipodi="http://sodipodi.sourceforge.net/DTD/sodipodi-0.dtd"
   xmlns:inkscape="http://www.inkscape.org/namespaces/inkscape"
   width="164.29236mm"
   height="185.64543mm"
   viewBox="0 0 164.29236 185.64543"
   version="1.1"
   id="svg8"
   inkscape:version="0.92.3 (2405546, 2018-03-11)"
   sodipodi:docname="pencil-rocket.svg">
  <defs
     id="defs2">
    <clipPath
       id="clipPath26"
       clipPathUnits="userSpaceOnUse">
      <path
         inkscape:connector-curvature="0"
         id="path24"
         d="M 0,0 H 500 V 500 H 0 Z" />
    </clipPath>
    <radialGradient
       id="radialGradient38"
       spreadMethod="pad"
       gradientTransform="matrix(212.45731,0,0,-318.69485,250,250)"
       gradientUnits="userSpaceOnUse"
       r="1"
       cy="0"
       cx="0"
       fy="0"
       fx="0">
      <stop
         id="stop32"
         offset="0"
         style="stop-opacity:1;stop-color:#139266" />
      <stop
         id="stop34"
         offset="0.993521"
         style="stop-opacity:1;stop-color:#0f684b" />
      <stop
         id="stop36"
         offset="1"
         style="stop-opacity:1;stop-color:#0f684b" />
    </radialGradient>
    <clipPath
       id="clipPath48"
       clipPathUnits="userSpaceOnUse">
      <path
         inkscape:connector-curvature="0"
         id="path46"
         d="M 0,500 H 500 V 0 H 0 Z" />
    </clipPath>
    <clipPath
       id="clipPath60"
       clipPathUnits="userSpaceOnUse">
      <path
         inkscape:connector-curvature="0"
         id="path58"
         d="m 205.826,398.355 c -17.742,-4.805 -17.742,-20.329 -17.742,-20.329 v 0 c 0,0 0.165,-7.55 0.37,-7.392 v 0 c 0.134,-13.168 4.103,-1.344 4.066,-0.739 v 0 c 0,0 12.197,-35.114 45.093,-47.312 v 0 c 32.895,-12.196 56.181,19.221 56.181,19.221 v 0 l -25.503,9.979 c 17.003,-4.065 41.027,13.307 41.027,13.307 v 0 c -7.022,-3.327 -29.938,4.805 -29.938,4.805 v 0 c 11.827,0.369 15.523,8.501 15.523,8.501 v 0 c -17.039,-4.26 -27.563,3.602 -43.117,9.616 v 0 c 5.979,2.918 21.31,2.211 21.31,2.211 v 0 c -23.286,14.045 -50.269,7.393 -50.269,7.393 v 0 l 4.067,12.936 c 0,0 -3.327,-7.393 -21.068,-12.197" />
    </clipPath>
    <clipPath
       id="clipPath88"
       clipPathUnits="userSpaceOnUse">
      <path
         inkscape:connector-curvature="0"
         id="path86"
         d="M 0,500 H 500 V 0 H 0 Z" />
    </clipPath>
    <clipPath
       id="clipPath100"
       clipPathUnits="userSpaceOnUse">
      <path
         inkscape:connector-curvature="0"
         id="path98"
         d="m 133.381,181.759 12.567,-5.913 36.592,72.814 -4.805,4.805 z" />
    </clipPath>
    <clipPath
       id="clipPath116"
       clipPathUnits="userSpaceOnUse">
      <path
         inkscape:connector-curvature="0"
         id="path114"
         d="M 0,500 H 500 V 0 H 0 Z" />
    </clipPath>
    <clipPath
       id="clipPath136"
       clipPathUnits="userSpaceOnUse">
      <path
         inkscape:connector-curvature="0"
         id="path134"
         d="m 250.919,302.624 -11.828,-16.263 18.481,-77.25 c 0,0 29.569,-1.847 38.441,2.957 v 0 c 8.869,4.806 -8.502,64.314 -14.416,77.989 v 0 c -5.088,11.768 -24.134,12.589 -29.35,12.589 v 0 c -0.846,0 -1.328,-0.022 -1.328,-0.022" />
    </clipPath>
    <clipPath
       id="clipPath148"
       clipPathUnits="userSpaceOnUse">
      <path
         inkscape:connector-curvature="0"
         id="path146"
         d="M 0,500 H 500 V 0 H 0 Z" />
    </clipPath>
    <clipPath
       id="clipPath164"
       clipPathUnits="userSpaceOnUse">
      <path
         inkscape:connector-curvature="0"
         id="path162"
         d="m 199.542,376.917 c -22.546,-10.349 0.555,-88.523 0.555,-88.523 v 0 l 48.235,4.99 -0.739,36.592 c 13.675,-8.132 19.461,4.548 16.262,14.784 v 0 c -2.349,7.516 -7.943,5.405 -11.733,3.294 v 0 c -2.174,-1.211 -3.755,-2.422 -3.79,-1.815 v 0 c -1.01,0.422 -10.286,3.083 -9.241,17.372 v 0 c 0.815,11.13 -1.566,17.47 -7.424,19.614 v 0 c -1.767,0.325 -3.642,0.48 -5.597,0.481 v 0 c -8.026,0 -17.427,-2.611 -26.528,-6.789" />
    </clipPath>
    <clipPath
       id="clipPath176"
       clipPathUnits="userSpaceOnUse">
      <path
         inkscape:connector-curvature="0"
         id="path174"
         d="m 192.427,344.668 h 4.435 v -7.762 h -4.435 z" />
    </clipPath>
    <clipPath
       id="clipPath192"
       clipPathUnits="userSpaceOnUse">
      <path
         inkscape:connector-curvature="0"
         id="path190"
         d="m 233.318,353.112 h 5.263 v -8.571 h -5.263 z" />
    </clipPath>
    <clipPath
       id="clipPath212"
       clipPathUnits="userSpaceOnUse">
      <path
         inkscape:connector-curvature="0"
         id="path210"
         d="M 0,500 H 500 V 0 H 0 Z" />
    </clipPath>
    <clipPath
       id="clipPath228"
       clipPathUnits="userSpaceOnUse">
      <path
         inkscape:connector-curvature="0"
         id="path226"
         d="m 178.843,358.991 c 0,-8.267 5.296,-14.97 11.828,-14.97 v 0 c 6.532,0 11.828,6.703 11.828,14.97 v 0 c 0,8.267 -5.296,14.969 -11.828,14.969 v 0 c -6.532,0 -11.828,-6.702 -11.828,-14.969" />
    </clipPath>
    <clipPath
       id="clipPath240"
       clipPathUnits="userSpaceOnUse">
      <path
         inkscape:connector-curvature="0"
         id="path238"
         d="M 0,500 H 500 V 0 H 0 Z" />
    </clipPath>
    <clipPath
       id="clipPath252"
       clipPathUnits="userSpaceOnUse">
      <path
         inkscape:connector-curvature="0"
         id="path250"
         d="m 209.152,365.274 c 0,-8.784 5.627,-15.905 12.567,-15.905 v 0 c 6.94,0 12.567,7.121 12.567,15.905 v 0 c 0,8.784 -5.627,15.906 -12.567,15.906 v 0 c -6.94,0 -12.567,-7.122 -12.567,-15.906" />
    </clipPath>
    <clipPath
       id="clipPath264"
       clipPathUnits="userSpaceOnUse">
      <path
         inkscape:connector-curvature="0"
         id="path262"
         d="M 0,500 H 500 V 0 H 0 Z" />
    </clipPath>
    <clipPath
       id="clipPath276"
       clipPathUnits="userSpaceOnUse">
      <path
         inkscape:connector-curvature="0"
         id="path274"
         d="m 198.433,337.369 c 0,0 7.762,-37.701 26.982,-34.375 v 0 c 19.22,3.326 7.023,42.875 7.023,42.875 v 0 z" />
    </clipPath>
    <clipPath
       id="clipPath296"
       clipPathUnits="userSpaceOnUse">
      <path
         inkscape:connector-curvature="0"
         id="path294"
         d="M 0,500 H 500 V 0 H 0 Z" />
    </clipPath>
    <clipPath
       id="clipPath308"
       clipPathUnits="userSpaceOnUse">
      <path
         inkscape:connector-curvature="0"
         id="path306"
         d="m 197.694,293.754 c 0,0 -6.283,-59.878 -2.957,-104.972 v 0 l 85.751,2.957 -31.418,103.862 z" />
    </clipPath>
    <clipPath
       id="clipPath352"
       clipPathUnits="userSpaceOnUse">
      <path
         inkscape:connector-curvature="0"
         id="path350"
         d="m 193.259,223.006 h 144.93 v -51.041 h -144.93 z" />
    </clipPath>
    <clipPath
       id="clipPath368"
       clipPathUnits="userSpaceOnUse">
      <path
         inkscape:connector-curvature="0"
         id="path366"
         d="M 0,500 H 500 V 0 H 0 Z" />
    </clipPath>
    <clipPath
       id="clipPath380"
       clipPathUnits="userSpaceOnUse">
      <path
         inkscape:connector-curvature="0"
         id="path378"
         d="m 170.342,252.726 23.471,-13.491 3.511,48.235 -1.479,2.587 z" />
    </clipPath>
    <clipPath
       id="clipPath400"
       clipPathUnits="userSpaceOnUse">
      <path
         inkscape:connector-curvature="0"
         id="path398"
         d="M 0,500 H 500 V 0 H 0 Z" />
    </clipPath>
    <clipPath
       id="clipPath432"
       clipPathUnits="userSpaceOnUse">
      <path
         inkscape:connector-curvature="0"
         id="path430"
         d="m 252.767,427.925 5.914,-9.241 102.014,34.744 -6.653,18.851 z m 98.687,32.156 c 0,1.225 0.58,2.217 1.295,2.217 v 0 c 0.713,0 1.293,-0.992 1.293,-2.217 v 0 c 0,-1.225 -0.58,-2.218 -1.293,-2.218 v 0 c -0.715,0 -1.295,0.993 -1.295,2.218" />
    </clipPath>
    <clipPath
       id="clipPath444"
       clipPathUnits="userSpaceOnUse">
      <path
         inkscape:connector-curvature="0"
         id="path442"
         d="M 0,500 H 500 V 0 H 0 Z" />
    </clipPath>
    <clipPath
       id="clipPath464"
       clipPathUnits="userSpaceOnUse">
      <path
         inkscape:connector-curvature="0"
         id="path462"
         d="m 248.332,293.384 6.467,-33.45 24.21,49.713 -31.786,2.957 z" />
    </clipPath>
    <clipPath
       id="clipPath488"
       clipPathUnits="userSpaceOnUse">
      <path
         inkscape:connector-curvature="0"
         id="path486"
         d="M 0,500 H 500 V 0 H 0 Z" />
    </clipPath>
    <clipPath
       id="clipPath756"
       clipPathUnits="userSpaceOnUse">
      <path
         inkscape:connector-curvature="0"
         id="path754"
         d="m 274.575,199.871 c -77.251,-25.873 -76.881,-69.487 -76.881,-69.487 v 0 l 175.937,73.922 -9.979,37.331 c 0,0 -11.829,-15.894 -89.077,-41.766" />
    </clipPath>
    <clipPath
       id="clipPath768"
       clipPathUnits="userSpaceOnUse">
      <path
         inkscape:connector-curvature="0"
         id="path766"
         d="M 0,500 H 500 V 0 H 0 Z" />
    </clipPath>
    <clipPath
       id="clipPath792"
       clipPathUnits="userSpaceOnUse">
      <path
         inkscape:connector-curvature="0"
         id="path790"
         d="m 204.717,163.648 c 0,0 2.587,-9.609 -15.155,-11.458 v 0 c -17.741,-1.848 -15.524,7.762 -15.524,7.762 v 0 L 49.781,194.09 49.685,192.167 151.861,87.508 244.635,71.244 c 0,0 2.958,-11.827 18.112,-10.719 v 0 c 15.154,1.11 12.937,6.285 12.937,6.285 v 0 l 175.937,18.11 -72.446,143.781 z" />
    </clipPath>
    <clipPath
       id="clipPath804"
       clipPathUnits="userSpaceOnUse">
      <path
         inkscape:connector-curvature="0"
         id="path802"
         d="M 0,500 H 500 V 0 H 0 Z" />
    </clipPath>
    <clipPath
       id="clipPath1364"
       clipPathUnits="userSpaceOnUse">
      <path
         inkscape:connector-curvature="0"
         id="path1362"
         d="M 0,500 H 500 V 0 H 0 Z" />
    </clipPath>
  </defs>
  <sodipodi:namedview
     id="base"
     pagecolor="#ffffff"
     bordercolor="#666666"
     borderopacity="1.0"
     inkscape:pageopacity="0.0"
     inkscape:pageshadow="2"
     inkscape:zoom="0.35"
     inkscape:cx="316.53619"
     inkscape:cy="372.95544"
     inkscape:document-units="mm"
     inkscape:current-layer="layer1"
     showgrid="false"
     fit-margin-top="0"
     fit-margin-left="0"
     fit-margin-right="0"
     fit-margin-bottom="0"
     inkscape:window-width="1366"
     inkscape:window-height="661"
     inkscape:window-x="0"
     inkscape:window-y="27"
     inkscape:window-maximized="1" />
  <metadata
     id="metadata5">
    <rdf:RDF>
      <cc:Work
         rdf:about="">
        <dc:format>image/svg+xml</dc:format>
        <dc:type
           rdf:resource="http://purl.org/dc/dcmitype/StillImage" />
        <dc:title></dc:title>
      </cc:Work>
    </rdf:RDF>
  </metadata>
  <g
     inkscape:label="Capa 1"
     inkscape:groupmode="layer"
     id="layer1"
     transform="translate(-22.083132,-61.865691)">
    <path
       inkscape:connector-curvature="0"
       id="path2846"
       style="fill:#a5dcf0;fill-opacity:1;fill-rule:nonzero;stroke:none;stroke-width:0.03527778"
       d="m 104.2273,83.218273 c -45.366871,0 -82.144168,36.778847 -82.144168,82.145727 0,45.36828 36.777297,82.14713 82.144168,82.14713 45.36899,0 82.14819,-36.77885 82.14819,-82.14713 0,-45.36688 -36.7792,-82.145727 -82.14819,-82.145727" />
    <path
       inkscape:connector-curvature="0"
       id="path2848"
       style="fill:#d8edee;fill-opacity:1;fill-rule:nonzero;stroke:none;stroke-width:0.03527778"
       d="m 170.16218,214.36801 c -0.0931,-5.63986 -4.09293,-10.65037 -9.85026,-11.79972 -5.65609,-1.12959 -11.17671,1.8348 -13.50293,6.84425 -1.35713,-1.20827 -3.03918,-2.08351 -4.94912,-2.46451 -4.17195,-0.83326 -8.25641,0.91828 -10.6052,4.14655 -0.67804,-0.27305 -1.38924,-0.48965 -2.13043,-0.63817 -6.45618,-1.28905 -12.73457,2.89912 -14.0215,9.3539 -1.29011,6.45619 2.89877,12.73313 9.3546,14.02214 2.21792,0.4432 4.41678,0.23925 6.39692,-0.48147 -0.01,0.0448 -0.0205,0.0889 -0.0289,0.13434 -0.6477,3.2446 0.14887,6.44179 1.9438,8.92887 15.02869,-5.56933 27.98445,-15.40827 37.39304,-28.04618" />
    <path
       inkscape:connector-curvature="0"
       id="path2850"
       style="fill:#d8edee;fill-opacity:1;fill-rule:nonzero;stroke:none;stroke-width:0.03527778"
       d="m 37.998561,202.04195 c -0.0028,-0.2854 -0.02152,-0.57044 -0.05045,-0.85513 0.148519,0.25576 0.312914,0.49812 0.485422,0.73836 -0.148519,0.0353 -0.292806,0.0748 -0.434975,0.11677 z m 10.93964,17.15947 c 4.722989,2.50225 10.581217,0.70273 13.084881,-4.0192 2.501547,-4.72405 0.702381,-10.58228 -4.01955,-13.08559 -0.880181,-0.46602 -1.797756,-0.78352 -2.72662,-0.9585 0.06985,-0.12241 0.142875,-0.24906 0.20955,-0.37465 2.603147,-4.90855 0.729545,-10.99714 -4.177595,-13.59746 -2.852208,-1.51201 -6.099528,-1.51095 -8.834261,-0.28611 -0.702734,-2.03482 -2.149828,-3.81882 -4.201937,-4.90643 -3.140075,-1.66405 -6.831542,-1.23896 -9.487712,0.78246 -0.670419,-0.77576 -1.493096,-1.44604 -2.45498,-1.95615 -0.952924,-0.50412 -1.959293,-0.80857 -2.970107,-0.93098 2.63525,14.79197 9.230819,28.2134 18.649775,39.12976 1.529997,-0.27129 2.979561,-0.94298 4.177947,-1.97238 0.756356,0.86324 1.6764,1.60655 2.750609,2.17523" />
    <path
       inkscape:connector-curvature="0"
       id="path2852"
       style="fill:#d8edee;fill-opacity:1;fill-rule:nonzero;stroke:none;stroke-width:0.03527778"
       d="m 100.47339,166.58425 -10.686342,60.50919 33.118422,-1.99887 -12.60192,-59.14426 -9.83016,0.63394" />
    <path
       inkscape:connector-curvature="0"
       id="path2854"
       style="fill:#d8edee;fill-opacity:1;fill-rule:nonzero;stroke:none;stroke-width:0.03527778"
       d="m 128.80039,221.29303 c 0.95638,-2.63066 -0.2226,-5.51603 -2.64865,-6.7638 0.65863,-0.73943 1.19203,-1.61326 1.5501,-2.59998 1.518,-4.17865 -0.63817,-8.79686 -4.81683,-10.31451 -4.17759,-1.51871 -8.79616,0.63888 -10.3131,4.81682 -0.16969,0.46708 -0.28999,0.93769 -0.37218,1.40935 -0.34996,-0.18662 -0.71861,-0.35278 -1.10243,-0.49353 -4.4577,-1.61855 -9.38425,0.68156 -11.00385,5.13926 -1.380771,3.80012 0.09,7.93821 3.31505,10.08133 -0.98037,0.81069 -1.76565,1.8849 -2.23167,3.16795 -1.01812,2.80282 -0.23671,5.81864 1.75119,7.78785 -0.25964,0.4403 -0.48542,0.90953 -0.66675,1.40836 -1.57515,4.3367 0.66287,9.13021 4.99957,10.70462 4.33599,1.57593 9.12883,-0.66284 10.70469,-4.99886 0.54151,-1.48936 0.63323,-3.03551 0.34325,-4.48413 0.0303,0.0106 0.0593,0.0237 0.0896,0.0346 4.1596,1.51088 8.75665,-0.63542 10.26759,-4.79502 1.0093,-2.77813 0.38594,-5.74986 -1.37865,-7.86829 0.66075,-0.58738 1.19062,-1.34161 1.51306,-2.23203" />
    <path
       inkscape:connector-curvature="0"
       id="path2856"
       style="fill:#d8edee;fill-opacity:1;fill-rule:nonzero;stroke:none;stroke-width:0.03527778"
       d="m 175.71772,183.03605 c -0.29421,0.39229 -0.54504,0.80327 -0.75706,1.22696 -0.27869,-0.2787 -0.5782,-0.54187 -0.90276,-0.78493 -3.75108,-2.81729 -9.07768,-2.06164 -11.89602,1.6898 -2.40277,3.19864 -2.20556,7.54063 0.22966,10.49832 -1.1624,0.48471 -2.21474,1.27529 -3.02648,2.35514 -1.772,2.35867 -1.90147,5.43913 -0.58773,7.87577 -0.37394,0.34254 -0.72249,0.72107 -1.03822,1.14053 -2.74144,3.65054 -2.00625,8.83355 1.64465,11.57534 1.78893,1.34409 3.94476,1.84997 6.00145,1.58962 9.86826,-10.99679 16.81128,-24.66905 19.61163,-39.79687 -3.25014,-1.27776 -7.0792,-0.29809 -9.27912,2.63032" />
    <path
       inkscape:connector-curvature="0"
       id="path2858"
       style="fill:#d8edee;fill-opacity:1;fill-rule:nonzero;stroke:none;stroke-width:0.03527778"
       d="m 96.763581,211.92537 c 0.406048,-0.59972 0.734131,-1.27494 0.957792,-2.01506 1.072797,-3.53272 -0.5969,-7.16633 -3.72992,-8.11636 -2.834569,-0.86113 -5.895269,0.77223 -7.246408,3.70981 -2.635956,-0.0829 -5.197829,1.83268 -6.093531,4.7819 -0.728134,2.4003 -0.159103,4.84646 1.283053,6.42691 -1.283759,0.48859 -2.374548,1.62877 -2.837392,3.1563 -0.747536,2.46133 0.415925,4.99428 2.598561,5.65679 0.193322,0.0586 0.387703,0.0953 0.581378,0.12136 -0.0049,0.0166 -0.0127,0.0325 -0.01729,0.0497 -0.805039,2.64933 0.448027,5.37492 2.796822,6.08753 2.349853,0.713 4.906081,-0.85661 5.710414,-3.5052 0.145345,-0.47942 0.221898,-0.96103 0.237773,-1.43302 0.06068,0.0197 0.118533,0.0416 0.178858,0.0599 3.757436,1.14021 7.84472,-1.37047 9.130949,-5.60804 1.17616,-3.8735 -0.400051,-7.8493 -3.551063,-9.3726" />
    <path
       inkscape:connector-curvature="0"
       id="path2860"
       style="fill:#d8edee;fill-opacity:1;fill-rule:nonzero;stroke:none;stroke-width:0.03527778"
       d="m 86.149908,236.23674 c 0.721078,0.11641 1.462617,0.16919 2.219326,0.1495 6.580011,-0.17638 11.771846,-5.65284 11.5951,-12.23288 -0.17533,-6.58072 -5.652206,-11.77185 -12.233275,-11.59616 -2.260601,0.0607 -4.359981,0.74683 -6.130926,1.88912 -0.0011,-0.0462 0,-0.091 -0.0011,-0.13758 -0.168981,-6.31155 -5.422195,-11.29065 -11.73339,-11.12132 -4.215695,0.11218 -7.834136,2.49379 -9.724673,5.94325 -1.124302,-0.56974 -2.402416,-0.87736 -3.752497,-0.84138 -3.992386,0.1076 -7.205839,3.18065 -7.593542,7.05274 -1.326445,-0.48719 -2.763309,-0.73802 -4.261556,-0.6978 -1.815747,0.048 -3.521075,0.51753 -5.027436,1.30916 9.421989,12.03784 22.130104,21.37858 36.773557,26.67674 0.148873,0.002 0.298098,0.008 0.449792,0.003 4.252384,-0.11399 7.846837,-2.72867 9.420578,-6.39685" />
    <path
       inkscape:connector-curvature="0"
       id="path2862"
       style="fill:#ffffff;fill-opacity:1;fill-rule:nonzero;stroke:none;stroke-width:0.03527778"
       d="m 167.98307,217.16165 c -0.80857,-0.65722 -1.7138,-1.22272 -2.70933,-1.67075 -5.26063,-2.36608 -11.30406,-0.71155 -14.69285,3.64913 -1.05092,-1.48061 -2.49555,-2.71004 -4.27143,-3.50908 -3.8795,-1.74554 -8.25288,-0.95179 -11.2642,1.66864 -0.59901,-0.41769 -1.24318,-0.78811 -1.93428,-1.0989 -6.00357,-2.70087 -13.05912,-0.0236 -15.75893,5.97923 -2.70087,6.00424 -0.024,13.0598 5.98029,15.75992 2.06339,0.92823 4.25273,1.22206 6.34294,0.96242 -0.0183,0.0416 -0.0399,0.0823 -0.0593,0.12417 -0.70202,1.56214 -1.02235,3.19758 -1.00506,4.80452 15.64287,-4.85563 29.28056,-14.26214 39.37212,-26.6693" />
    <path
       inkscape:connector-curvature="0"
       id="path2864"
       style="fill:#ffffff;fill-opacity:1;fill-rule:nonzero;stroke:none;stroke-width:0.03527778"
       d="m 51.981967,225.53131 c 0.04163,-0.0212 0.08149,-0.0413 0.122767,-0.0628 5.554839,-3.00108 7.624587,-9.93704 4.623506,-15.49259 -2.004131,-3.70946 -5.763684,-5.86281 -9.694687,-5.99016 7.06e-4,-1.26083 -0.303036,-2.54142 -0.944739,-3.72887 -1.897592,-3.51402 -6.091414,-4.99321 -9.721145,-3.58986 -0.165453,-1.40371 -0.589139,-2.79965 -1.302103,-4.11833 -2.095923,-3.8795 -6.103267,-6.0646 -10.225652,-6.02439 5.077778,19.09975 16.862814,35.46264 32.68137,46.41738 -0.236361,-0.95208 -0.596194,-1.89054 -1.084086,-2.79326 -1.075267,-1.99143 -2.635955,-3.55314 -4.455231,-4.61712" />
    <path
       inkscape:connector-curvature="0"
       id="path2866"
       style="fill:#ffffff;fill-opacity:1;fill-rule:nonzero;stroke:none;stroke-width:0.03527778"
       d="m 101.79066,178.03507 -8.288862,42.32169 25.688222,-1.39806 -9.77442,-41.36672 -7.62494,0.44309" />
    <path
       inkscape:connector-curvature="0"
       id="path2868"
       style="fill:#ffffff;fill-opacity:1;fill-rule:nonzero;stroke:none;stroke-width:0.03527778"
       d="m 118.30878,242.19646 c 0.0303,0.0106 0.0593,0.0237 0.0896,0.0346 4.1603,1.51169 8.75665,-0.63528 10.26759,-4.79559 1.0093,-2.77742 0.38594,-5.74933 -1.37865,-7.86847 0.66075,-0.58663 1.18992,-1.34083 1.51306,-2.23131 0.95638,-2.6306 -0.2226,-5.51597 -2.64865,-6.7641 0.65863,-0.73907 1.19203,-1.6129 1.54975,-2.60032 1.51835,-4.17795 -0.63782,-8.79546 -4.81648,-10.31381 -4.17759,-1.51871 -8.79616,0.63817 -10.3131,4.81683 -0.17039,0.46672 -0.29104,0.93803 -0.37218,1.40899 -0.34996,-0.18662 -0.71861,-0.35278 -1.10243,-0.49248 -4.45665,-1.61925 -9.38425,0.68086 -11.00385,5.13856 -1.380771,3.80013 0.09,7.93817 3.3147,10.0813 -0.98002,0.81068 -1.76459,1.88486 -2.23132,3.16798 -1.01812,2.80208 -0.23601,5.81875 1.75119,7.78715 -0.26035,0.44097 -0.48542,0.9102 -0.66675,1.40903 -0.80504,2.21618 -0.61242,4.55192 0.34572,6.51619 0.53975,0.01 1.07844,0.0201 1.62031,0.0201 4.72017,0 9.34579,-0.4039 13.84829,-1.16801 0.43815,-1.38508 0.50095,-2.80706 0.23319,-4.14666" />
    <path
       inkscape:connector-curvature="0"
       id="path2870"
       style="fill:#ffffff;fill-opacity:1;fill-rule:nonzero;stroke:none;stroke-width:0.03527778"
       d="m 181.97212,187.4567 c -3.87809,0.98567 -6.4456,4.49157 -6.40468,8.32203 -1.20862,-0.35031 -2.52448,-0.39511 -3.83328,-0.0624 -2.85962,0.72567 -4.89233,3.04412 -5.3968,5.76615 -0.50482,0.0325 -1.01494,0.10937 -1.52329,0.23848 -4.42595,1.1236 -7.10177,5.62222 -5.97747,10.04782 0.98954,3.89643 4.5981,6.43608 8.46737,6.21841 7.4041,-8.86601 12.97305,-19.31529 16.12583,-30.76716 -0.48331,0.037 -0.9712,0.11324 -1.45768,0.23671" />
    <path
       inkscape:connector-curvature="0"
       id="path2872"
       style="fill:#ffffff;fill-opacity:1;fill-rule:nonzero;stroke:none;stroke-width:0.03527778"
       d="m 98.575801,216.16082 c 0.161925,-0.70485 0.225072,-1.45344 0.167922,-2.22497 -0.27058,-3.68159 -3.1369,-6.471 -6.401859,-6.2297 -2.954161,0.21731 -5.221817,2.84304 -5.425017,6.06919 -2.489553,0.87207 -4.189942,3.5814 -3.964164,6.65515 0.184856,2.50261 1.596673,4.57871 3.51155,5.53544 -1.021644,0.91722 -1.629833,2.37314 -1.512005,3.96557 0.189089,2.56579 2.186869,4.50949 4.460875,4.34125 0.201083,-0.0145 0.39617,-0.05 0.587022,-0.0948 7.06e-4,0.0165 -7.05e-4,0.0342 7.06e-4,0.0521 0.2032,2.76091 2.353028,4.85288 4.801659,4.67223 2.448983,-0.18024 4.268258,-2.56509 4.064353,-5.32515 -0.03634,-0.49953 -0.138289,-0.97716 -0.292453,-1.42311 0.06244,-0.003 0.124178,-0.004 0.18803,-0.009 3.91583,-0.28787 6.82555,-4.10172 6.50099,-8.51818 -0.29845,-4.03789 -3.2004,-7.17973 -6.687609,-7.46619" />
    <path
       inkscape:connector-curvature="0"
       id="path2874"
       style="fill:#ffffff;fill-opacity:1;fill-rule:nonzero;stroke:none;stroke-width:0.03527778"
       d="m 93.257323,246.27422 c 6.580717,-0.17558 11.771847,-5.65284 11.596157,-12.23285 -0.17639,-6.58069 -5.653615,-11.77185 -12.233627,-11.59616 -2.262011,0.0607 -4.360686,0.74683 -6.131631,1.88983 -7.05e-4,-0.0459 0,-0.0914 -7.05e-4,-0.13759 -0.168981,-6.31154 -5.422548,-11.291 -11.73339,-11.12167 -4.216047,0.11183 -7.834842,2.49379 -9.723967,5.9436 -1.125361,-0.57044 -2.403475,-0.87771 -3.753556,-0.84208 -3.991681,0.1076 -7.205486,3.18065 -7.593189,7.05309 -1.326445,-0.48648 -2.763662,-0.73872 -4.261556,-0.69815 -0.664986,0.018 -1.314097,0.0952 -1.94557,0.22049 11.706226,11.19046 26.716216,18.94868 43.418128,21.67502 0.04762,-0.10132 0.09878,-0.19971 0.143228,-0.30304 0.72143,0.11575 1.462617,0.16962 2.219678,0.14951" />
    <path
       inkscape:connector-curvature="0"
       id="path2876"
       style="fill:#ffffff;fill-opacity:1;fill-rule:nonzero;stroke:none;stroke-width:0.03527778"
       d="m 131.11144,236.88232 c -2.26095,0.0606 -4.36104,0.74676 -6.13093,1.88902 -10e-4,-0.0461 0,-0.0914 -10e-4,-0.13751 -0.16898,-6.31155 -5.42255,-11.29027 -11.73374,-11.12175 -4.21534,0.11261 -7.83449,2.49453 -9.72432,5.94431 -1.1243,-0.57037 -2.40242,-0.87768 -3.75285,-0.84197 -3.992034,0.10749 -7.205487,3.18064 -7.59319,7.05266 -1.326091,-0.48687 -2.763308,-0.73766 -4.261908,-0.69769 -3.648428,0.0969 -6.852003,1.88831 -8.884003,4.59768 7.940675,2.55764 16.407342,3.94406 25.198211,3.94406 12.49398,0 24.33391,-2.79397 34.93523,-7.78411 -2.16147,-1.84355 -4.9858,-2.92697 -8.05109,-2.8447" />
    <path
       inkscape:connector-curvature="0"
       id="path2878"
       style="fill:#ffffff;fill-opacity:1;fill-rule:nonzero;stroke:none;stroke-width:0.03527778"
       d="m 147.10885,128.79822 c 0.0427,-0.0568 0.0861,-0.115 0.1263,-0.17392 0.0875,0.10513 0.18027,0.20638 0.27622,0.30304 -0.13229,-0.049 -0.2667,-0.0917 -0.40252,-0.12912 z m 9.31369,-3.81282 c -0.31856,0.0628 -0.62089,0.16122 -0.90487,0.28963 -0.0141,-0.1785 -0.0378,-0.35807 -0.073,-0.53763 -0.49459,-2.54035 -2.95663,-4.1977 -5.49628,-3.70205 -1.39806,0.27305 -2.528,1.14159 -3.17994,2.29058 -0.95179,-0.96872 -2.3562,-1.45626 -3.78883,-1.17686 -1.74025,0.33972 -3.0166,1.71273 -3.31717,3.35738 -0.54187,-0.0938 -1.10984,-0.0931 -1.68099,0.018 -1.86619,0.36477 -3.25084,1.79951 -3.64172,3.5433 h 26.96386 c 0.004,-0.27905 -0.0205,-0.56233 -0.0758,-0.84667 -0.43357,-2.22074 -2.58445,-3.66889 -4.80519,-3.23568" />
    <path
       inkscape:connector-curvature="0"
       id="path2880"
       style="fill:#ffffff;fill-opacity:1;fill-rule:nonzero;stroke:none;stroke-width:0.03527778"
       d="m 62.593876,145.7626 c 0.03422,-0.0441 0.06738,-0.0896 0.09913,-0.13582 0.06703,0.0819 0.140758,0.16157 0.214842,0.23707 -0.102659,-0.0385 -0.208139,-0.0713 -0.313972,-0.10125 z m 7.271809,-2.97603 c -0.249061,0.0483 -0.485069,0.12559 -0.706967,0.22578 -0.01094,-0.13935 -0.02963,-0.2794 -0.05715,-0.41946 -0.386291,-1.98367 -2.308225,-3.27765 -4.290836,-2.89066 -1.091847,0.21343 -1.973086,0.89147 -2.481792,1.78823 -0.743655,-0.756 -1.840089,-1.13629 -2.958747,-0.91863 -1.358547,0.26529 -2.355145,1.33703 -2.588684,2.62114 -0.424039,-0.073 -0.866422,-0.0723 -1.313744,0.0141 -1.455914,0.28434 -2.537531,1.40511 -2.841625,2.76578 h 21.049898 c 0.0025,-0.21731 -0.01552,-0.43851 -0.05962,-0.66076 -0.337961,-1.73319 -2.017184,-2.86385 -3.750734,-2.52553" />
    <path
       inkscape:connector-curvature="0"
       id="path2882"
       style="fill:#f05a2a;fill-opacity:1;fill-rule:nonzero;stroke:none;stroke-width:0.03527778"
       d="m 105.79857,160.36019 c -6.033555,0.15205 -11.189755,6.94867 -11.066989,11.78243 0.12312,4.832 11.952109,23.12282 11.952109,23.12282 3.33869,-8.37459 10.88461,-18.94734 10.76502,-23.69785 -0.12136,-4.75121 -5.61693,-11.36085 -11.65014,-11.2074" />
    <path
       inkscape:connector-curvature="0"
       id="path2884"
       style="fill:#f8ec3a;fill-opacity:1;fill-rule:nonzero;stroke:none;stroke-width:0.03527778"
       d="m 105.80845,160.70909 c -4.93148,0.12453 -9.144705,5.68078 -9.044163,9.62907 0.09878,3.95041 9.766303,18.8976 9.766303,18.8976 2.72909,-6.84353 8.89741,-15.48377 8.79863,-19.3675 -0.0995,-3.88267 -4.58858,-9.28405 -9.52077,-9.15917" />
    <path
       inkscape:connector-curvature="0"
       id="path2886"
       style="fill:#ffffff;fill-opacity:1;fill-rule:nonzero;stroke:none;stroke-width:0.03527778"
       d="m 105.80633,160.66852 c -3.80012,0.0956 -7.046026,4.37762 -6.968768,7.42068 0.07691,3.04306 7.526868,14.56091 7.526868,14.56091 2.10185,-5.27297 6.85377,-11.93165 6.77827,-14.92391 -0.0751,-2.99191 -3.53554,-7.15293 -7.33637,-7.05768" />
    <path
       inkscape:connector-curvature="0"
       id="path2888"
       style="fill:#f05a2a;fill-opacity:1;fill-rule:nonzero;stroke:none;stroke-width:0.03527778"
       d="m 101.22693,162.86739 c -3.936299,-0.77964 -8.272996,2.88078 -8.897766,6.03426 -0.624064,3.15383 4.386792,16.7446 4.386792,16.7446 3.388074,-4.94595 9.824514,-10.70892 10.437634,-13.80949 0.61454,-3.09986 -1.98825,-8.18973 -5.92666,-8.96937" />
    <path
       inkscape:connector-curvature="0"
       id="path2890"
       style="fill:#f8ec3a;fill-opacity:1;fill-rule:nonzero;stroke:none;stroke-width:0.03527778"
       d="m 101.18142,163.09528 c -3.218041,-0.63712 -6.760636,2.35409 -7.2704,4.93113 -0.511528,2.57739 3.585986,13.68601 3.585986,13.68601 2.767544,-4.04424 8.028164,-8.75241 8.528754,-11.28642 0.50236,-2.5347 -1.6256,-6.69396 -4.84434,-7.33072" />
    <path
       inkscape:connector-curvature="0"
       id="path2892"
       style="fill:#ffffff;fill-opacity:1;fill-rule:nonzero;stroke:none;stroke-width:0.03527778"
       d="m 101.18706,163.06918 c -2.478967,-0.49142 -5.209115,1.81398 -5.603873,3.79977 -0.392995,1.98613 2.763308,10.54558 2.763308,10.54558 2.132895,-3.11538 6.188075,-6.7444 6.573665,-8.69703 0.38735,-1.95192 -1.25272,-5.15761 -3.7331,-5.64832" />
    <path
       inkscape:connector-curvature="0"
       id="path2894"
       style="fill:#f05a2a;fill-opacity:1;fill-rule:nonzero;stroke:none;stroke-width:0.03527778"
       d="m 103.02962,161.91453 c -2.33856,1.01495 -3.281891,4.49475 -2.46803,6.36694 0.81421,1.87289 8.3446,7.1628 8.3446,7.1628 -0.019,-3.80859 1.26118,-9.14471 0.46108,-10.98656 -0.79939,-1.8415 -3.99838,-3.55918 -6.33765,-2.54318" />
    <path
       inkscape:connector-curvature="0"
       id="path2896"
       style="fill:#f8ec3a;fill-opacity:1;fill-rule:nonzero;stroke:none;stroke-width:0.03527778"
       d="m 103.08818,162.05035 c -1.90994,0.82938 -2.68111,3.67207 -2.01577,5.20383 0.66428,1.53105 6.81778,5.85329 6.81778,5.85329 -0.0134,-3.11327 1.03117,-7.47395 0.37783,-8.97961 -0.65405,-1.5046 -3.26884,-2.90795 -5.17984,-2.07751" />
    <path
       inkscape:connector-curvature="0"
       id="path2898"
       style="fill:#ffffff;fill-opacity:1;fill-rule:nonzero;stroke:none;stroke-width:0.03527778"
       d="m 103.08148,162.03413 c -1.47214,0.63923 -2.06587,2.83174 -1.55399,4.01108 0.51259,1.17863 5.25463,4.5092 5.25463,4.5092 -0.0109,-2.39959 0.79516,-5.75874 0.28963,-6.91867 -0.50271,-1.15994 -2.51742,-2.24155 -3.99027,-1.60161" />
    <path
       inkscape:connector-curvature="0"
       id="path2900"
       style="fill:#f7cf9c;fill-opacity:1;fill-rule:nonzero;stroke:none;stroke-width:0.03527778"
       d="M 116.0884,84.074112 104.10524,61.865691 93.176537,83.960518 c 3.614914,-0.486128 7.302853,-0.742245 11.050763,-0.742245 4.02872,0 7.9876,0.295275 11.8611,0.855839" />
    <path
       inkscape:connector-curvature="0"
       id="path2902"
       style="fill:#f7cf9c;fill-opacity:1;fill-rule:nonzero;stroke:none;stroke-width:0.03527778"
       d="m 89.615598,91.164593 -0.05362,0.108656 h 3.53e-4 c 0,0.0014 -3.53e-4,0.0021 -3.53e-4,0.0035 -0.02611,2.108905 0,22.681491 0,22.681491 H 119.97742 V 91.276777 h -0.002 l -3.8869,-7.202665 c -3.8735,-0.560564 -7.83238,-0.855839 -11.8611,-0.855839 -3.74791,0 -7.435849,0.256117 -11.050763,0.742245 l -3.525662,7.129286 c -0.02187,0.02364 -0.02011,0.0508 -0.03528,0.07479" />
    <path
       inkscape:connector-curvature="0"
       id="path2904"
       style="fill:#eabd8c;fill-opacity:1;fill-rule:nonzero;stroke:none;stroke-width:0.03527778"
       d="m 104.10524,61.865691 5.42149,21.527207 c 2.21192,0.141111 4.40055,0.3683 6.56167,0.681214 L 104.10524,61.865691" />
    <path
       inkscape:connector-curvature="0"
       id="path2906"
       style="fill:#eabd8c;fill-opacity:1;fill-rule:nonzero;stroke:none;stroke-width:0.03527778"
       d="m 111.51216,96.833027 h 8.46526 l -0.002,-5.55625 -3.8869,-7.202665 c -2.16112,-0.312914 -4.34975,-0.540103 -6.56167,-0.681214 l 1.98543,7.883879 v 5.55625" />
    <path
       inkscape:connector-curvature="0"
       id="path2908"
       style="fill:#eabd8c;fill-opacity:1;fill-rule:nonzero;stroke:none;stroke-width:0.03527778"
       d="M 104.10524,61.865691 93.171598,83.961223 c 2.13748,-0.287161 4.300361,-0.494594 6.485114,-0.614539 l 4.448528,-21.480993" />
    <path
       inkscape:connector-curvature="0"
       id="path2910"
       style="fill:#eabd8c;fill-opacity:1;fill-rule:nonzero;stroke:none;stroke-width:0.03527778"
       d="m 89.551039,96.833027 h 8.464198 v -5.55625 l 1.641475,-7.930093 c -2.184753,0.119945 -4.347634,0.327378 -6.485114,0.614539 l -3.6195,7.315554 -0.0011,5.55625" />
    <path
       inkscape:connector-curvature="0"
       id="path2912"
       style="fill:#e24b77;fill-opacity:1;fill-rule:nonzero;stroke:none;stroke-width:0.03527778"
       d="m 116.3297,143.70944 -23.125647,0.003 c -2.011186,0 -3.641725,1.31515 -3.642078,2.93652 v 14.50728 c 0,1.62278 1.629481,2.93582 3.642078,2.9397 H 116.3297 c 2.014,0 3.6456,-1.31622 3.64419,-2.93793 l 0.001,-14.50905 c 0,-1.62313 -1.63018,-2.93758 -3.6456,-2.93934" />
    <path
       inkscape:connector-curvature="0"
       id="path2914"
       style="fill:#ffdc24;fill-opacity:1;fill-rule:nonzero;stroke:none;stroke-width:0.03527778"
       d="m 119.83419,91.276777 c 0.0476,0.214841 0.0811,0.435327 0.0811,0.662869 0,1.923697 -1.91946,3.484386 -4.28272,3.484386 -2.36644,0 -3.97087,-1.369836 -3.97087,-3.293886 0,-0.226483 -0.27764,-0.638528 -0.2286,-0.853369 -0.12524,2.922764 -4.22769,3.853039 -6.75922,3.853039 -2.54635,0 -6.406094,-0.905581 -6.646689,-3.680178 -0.1143,1.841853 -1.968852,3.308703 -4.258733,3.308703 -2.113492,0 -3.85692,-1.246364 -4.206523,-2.883959 l 3.53e-4,55.128238 30.415092,3.5e-4 -0.004,-55.726193 h -0.1397" />
    <path
       inkscape:connector-curvature="0"
       id="path2916"
       style="fill:#221f1f;fill-opacity:1;fill-rule:nonzero;stroke:none;stroke-width:0.03527778"
       d="m 109.6435,72.127998 -5.53826,-10.262307 -5.078942,10.26407 z" />
    <path
       inkscape:connector-curvature="0"
       id="path2918"
       style="fill:#d0d2d3;fill-opacity:1;fill-rule:nonzero;stroke:none;stroke-width:0.03527778"
       d="m 89.561975,153.38366 30.411915,-0.004 0.004,-6.9716 -30.415092,-3.5e-4 -3.53e-4,6.97618" />
    <path
       inkscape:connector-curvature="0"
       id="path2920"
       style="fill:#e8bf15;fill-opacity:1;fill-rule:nonzero;stroke:none;stroke-width:0.03527778"
       d="m 93.768498,94.160029 c -2.113492,0 -3.85692,-1.246364 -4.206523,-2.883252 l 3.53e-4,55.128233 8.409165,0.003 0.0018,-55.11659 c -0.359127,1.629481 -2.09938,2.868789 -4.204758,2.868789" />
    <path
       inkscape:connector-curvature="0"
       id="path2922"
       style="fill:#e8bf15;fill-opacity:1;fill-rule:nonzero;stroke:none;stroke-width:0.03527778"
       d="m 115.74479,94.160029 c -2.12584,0 -3.87985,-1.244952 -4.23263,-2.883252 v 55.128233 l 8.46173,0.003 0.001,-55.11659 c -0.36054,1.629481 -2.1142,2.868789 -4.23051,2.868789" />
    <path
       inkscape:connector-curvature="0"
       id="path2924"
       style="fill:#f0f1f1;fill-opacity:1;fill-rule:nonzero;stroke:none;stroke-width:0.03527778"
       d="m 97.971493,153.38366 h 13.540667 v -6.97583 H 97.971493 v 6.97583" />
    <path
       inkscape:connector-curvature="0"
       id="path2926"
       style="fill:#f45d81;fill-opacity:1;fill-rule:nonzero;stroke:none;stroke-width:0.03527778"
       d="M 97.971493,164.09576 H 111.51216 V 153.38154 H 97.971493 v 10.71422" />
  </g>
</svg>
